<svg width="1200" height="630" viewBox="0 0 1200 630" fill="none" xmlns="http://www.w3.org/2000/svg">
<g clip-path="url(#clip0_2055_21)">
<path d="M1200 0H0V630H1200V0Z" fill="#FAFBFC"/>
<path d="M1076 100H124C110.745 100 100 110.745 100 124V506C100 519.255 110.745 530 124 530H1076C1089.25 530 1100 519.255 1100 506V124C1100 110.745 1089.25 100 1076 100Z" fill="white" stroke="#E2E8F0" stroke-width="2"/>
<path d="M224.5 244.5L289.694 276.339V353.661L224.5 385.5L159.307 353.661V276.339L224.5 244.5Z" stroke="#718096" stroke-width="12"/>
<path d="M224.5 315L257.097 293.016V336.984L224.5 315Z" fill="#718096"/>
<path d="M366.148 197.955L377.398 233.318H377.83L389.102 197.955H400.012L383.966 244.5H371.284L355.216 197.955H366.148ZM417.404 245.182C413.813 245.182 410.722 244.455 408.131 243C405.555 241.53 403.57 239.455 402.176 236.773C400.782 234.076 400.085 230.886 400.085 227.205C400.085 223.614 400.782 220.462 402.176 217.75C403.57 215.038 405.532 212.924 408.063 211.409C410.608 209.894 413.593 209.136 417.017 209.136C419.32 209.136 421.464 209.508 423.449 210.25C425.449 210.977 427.191 212.076 428.676 213.545C430.176 215.015 431.343 216.864 432.176 219.091C433.01 221.303 433.426 223.894 433.426 226.864V229.523H403.949V223.523H424.313C424.313 222.129 424.01 220.894 423.404 219.818C422.798 218.742 421.957 217.902 420.881 217.295C419.82 216.674 418.585 216.364 417.176 216.364C415.707 216.364 414.404 216.705 413.267 217.386C412.146 218.053 411.267 218.955 410.631 220.091C409.994 221.212 409.669 222.462 409.654 223.841V229.545C409.654 231.273 409.972 232.765 410.608 234.023C411.26 235.28 412.176 236.25 413.358 236.932C414.54 237.614 415.941 237.955 417.563 237.955C418.638 237.955 419.623 237.803 420.517 237.5C421.411 237.197 422.176 236.742 422.813 236.136C423.449 235.53 423.934 234.788 424.267 233.909L433.222 234.5C432.767 236.652 431.835 238.53 430.426 240.136C429.032 241.727 427.229 242.97 425.017 243.864C422.82 244.742 420.282 245.182 417.404 245.182ZM455.517 245.182C451.941 245.182 448.866 244.424 446.29 242.909C443.729 241.379 441.76 239.258 440.381 236.545C439.017 233.833 438.335 230.712 438.335 227.182C438.335 223.606 439.025 220.47 440.404 217.773C441.798 215.061 443.775 212.947 446.335 211.432C448.896 209.902 451.941 209.136 455.472 209.136C458.517 209.136 461.184 209.689 463.472 210.795C465.76 211.902 467.57 213.455 468.904 215.455C470.237 217.455 470.972 219.803 471.108 222.5H461.972C461.714 220.758 461.032 219.356 459.926 218.295C458.835 217.22 457.404 216.682 455.631 216.682C454.131 216.682 452.82 217.091 451.699 217.909C450.593 218.712 449.729 219.886 449.108 221.432C448.487 222.977 448.176 224.848 448.176 227.045C448.176 229.273 448.479 231.167 449.085 232.727C449.707 234.288 450.578 235.477 451.699 236.295C452.82 237.114 454.131 237.523 455.631 237.523C456.737 237.523 457.729 237.295 458.608 236.841C459.502 236.386 460.237 235.727 460.813 234.864C461.404 233.985 461.79 232.932 461.972 231.705H471.108C470.957 234.371 470.229 236.72 468.926 238.75C467.638 240.765 465.858 242.341 463.585 243.477C461.313 244.614 458.623 245.182 455.517 245.182ZM495.875 209.591V216.864H474.852V209.591H495.875ZM479.625 201.227H489.307V233.773C489.307 234.667 489.443 235.364 489.716 235.864C489.989 236.348 490.368 236.689 490.852 236.886C491.352 237.083 491.928 237.182 492.58 237.182C493.034 237.182 493.489 237.144 493.943 237.068C494.398 236.977 494.746 236.909 494.989 236.864L496.512 244.068C496.027 244.22 495.345 244.394 494.466 244.591C493.587 244.803 492.519 244.932 491.262 244.977C488.928 245.068 486.883 244.758 485.125 244.045C483.383 243.333 482.027 242.227 481.057 240.727C480.087 239.227 479.61 237.333 479.625 235.045V201.227ZM517.58 245.182C514.049 245.182 510.996 244.432 508.421 242.932C505.86 241.417 503.883 239.311 502.489 236.614C501.095 233.902 500.398 230.758 500.398 227.182C500.398 223.576 501.095 220.424 502.489 217.727C503.883 215.015 505.86 212.909 508.421 211.409C510.996 209.894 514.049 209.136 517.58 209.136C521.11 209.136 524.155 209.894 526.716 211.409C529.292 212.909 531.277 215.015 532.671 217.727C534.065 220.424 534.762 223.576 534.762 227.182C534.762 230.758 534.065 233.902 532.671 236.614C531.277 239.311 529.292 241.417 526.716 242.932C524.155 244.432 521.11 245.182 517.58 245.182ZM517.625 237.682C519.231 237.682 520.572 237.227 521.648 236.318C522.724 235.394 523.534 234.136 524.08 232.545C524.64 230.955 524.921 229.144 524.921 227.114C524.921 225.083 524.64 223.273 524.08 221.682C523.534 220.091 522.724 218.833 521.648 217.909C520.572 216.985 519.231 216.523 517.625 216.523C516.004 216.523 514.64 216.985 513.534 217.909C512.443 218.833 511.618 220.091 511.057 221.682C510.512 223.273 510.239 225.083 510.239 227.114C510.239 229.144 510.512 230.955 511.057 232.545C511.618 234.136 512.443 235.394 513.534 236.318C514.64 237.227 516.004 237.682 517.625 237.682ZM541.057 244.5V209.591H550.443V215.682H550.807C551.443 213.515 552.512 211.879 554.012 210.773C555.512 209.652 557.239 209.091 559.193 209.091C559.678 209.091 560.201 209.121 560.762 209.182C561.322 209.242 561.815 209.326 562.239 209.432V218.023C561.784 217.886 561.155 217.765 560.352 217.659C559.549 217.553 558.815 217.5 558.148 217.5C556.724 217.5 555.451 217.811 554.33 218.432C553.224 219.038 552.345 219.886 551.693 220.977C551.057 222.068 550.739 223.326 550.739 224.75V244.5H541.057ZM567.244 244.5V209.591H576.926V244.5H567.244ZM572.108 205.091C570.669 205.091 569.434 204.614 568.404 203.659C567.388 202.689 566.881 201.53 566.881 200.182C566.881 198.848 567.388 197.705 568.404 196.75C569.434 195.78 570.669 195.295 572.108 195.295C573.548 195.295 574.775 195.78 575.79 196.75C576.82 197.705 577.335 198.848 577.335 200.182C577.335 201.53 576.82 202.689 575.79 203.659C574.775 204.614 573.548 205.091 572.108 205.091ZM584.5 244.5V238.727L601.591 217.568V217.318H585.091V209.591H613.25V215.886L597.205 236.523V236.773H613.841V244.5H584.5ZM636.154 245.182C632.563 245.182 629.472 244.455 626.881 243C624.305 241.53 622.32 239.455 620.926 236.773C619.532 234.076 618.835 230.886 618.835 227.205C618.835 223.614 619.532 220.462 620.926 217.75C622.32 215.038 624.282 212.924 626.813 211.409C629.358 209.894 632.343 209.136 635.767 209.136C638.07 209.136 640.214 209.508 642.199 210.25C644.199 210.977 645.941 212.076 647.426 213.545C648.926 215.015 650.093 216.864 650.926 219.091C651.76 221.303 652.176 223.894 652.176 226.864V229.523H622.699V223.523H643.063C643.063 222.129 642.76 220.894 642.154 219.818C641.548 218.742 640.707 217.902 639.631 217.295C638.57 216.674 637.335 216.364 635.926 216.364C634.457 216.364 633.154 216.705 632.017 217.386C630.896 218.053 630.017 218.955 629.381 220.091C628.744 221.212 628.419 222.462 628.404 223.841V229.545C628.404 231.273 628.722 232.765 629.358 234.023C630.01 235.28 630.926 236.25 632.108 236.932C633.29 237.614 634.691 237.955 636.313 237.955C637.388 237.955 638.373 237.803 639.267 237.5C640.161 237.197 640.926 236.742 641.563 236.136C642.199 235.53 642.684 234.788 643.017 233.909L651.972 234.5C651.517 236.652 650.585 238.53 649.176 240.136C647.782 241.727 645.979 242.97 643.767 243.864C641.57 244.742 639.032 245.182 636.154 245.182ZM658.494 244.5V209.591H667.881V215.682H668.244C668.881 213.515 669.949 211.879 671.449 210.773C672.949 209.652 674.676 209.091 676.631 209.091C677.116 209.091 677.638 209.121 678.199 209.182C678.76 209.242 679.252 209.326 679.676 209.432V218.023C679.222 217.886 678.593 217.765 677.79 217.659C676.987 217.553 676.252 217.5 675.585 217.5C674.161 217.5 672.888 217.811 671.767 218.432C670.661 219.038 669.782 219.886 669.131 220.977C668.494 222.068 668.176 223.326 668.176 224.75V244.5H658.494Z" fill="#1A202C"/>
<path d="M355.239 285.727V283.227H372.693V285.727H365.375V306.5H362.557V285.727H355.239ZM374.867 306.5V289.045H377.458V291.682H377.639C377.958 290.818 378.533 290.117 379.367 289.58C380.2 289.042 381.139 288.773 382.185 288.773C382.382 288.773 382.628 288.777 382.923 288.784C383.219 288.792 383.442 288.803 383.594 288.818V291.545C383.503 291.523 383.295 291.489 382.969 291.443C382.651 291.39 382.314 291.364 381.958 291.364C381.109 291.364 380.352 291.542 379.685 291.898C379.026 292.246 378.503 292.731 378.117 293.352C377.738 293.966 377.548 294.667 377.548 295.455V306.5H374.867ZM391.909 306.909C390.803 306.909 389.799 306.701 388.898 306.284C387.996 305.86 387.28 305.25 386.75 304.455C386.22 303.652 385.955 302.682 385.955 301.545C385.955 300.545 386.152 299.735 386.546 299.114C386.94 298.485 387.466 297.992 388.125 297.636C388.784 297.28 389.512 297.015 390.307 296.841C391.11 296.659 391.917 296.515 392.727 296.409C393.788 296.273 394.648 296.17 395.307 296.102C395.974 296.027 396.459 295.902 396.762 295.727C397.072 295.553 397.227 295.25 397.227 294.818V294.727C397.227 293.606 396.921 292.735 396.307 292.114C395.701 291.492 394.78 291.182 393.546 291.182C392.265 291.182 391.262 291.462 390.534 292.023C389.807 292.583 389.296 293.182 389 293.818L386.455 292.909C386.909 291.848 387.515 291.023 388.273 290.432C389.038 289.833 389.871 289.417 390.773 289.182C391.682 288.939 392.576 288.818 393.455 288.818C394.015 288.818 394.659 288.886 395.387 289.023C396.121 289.152 396.83 289.42 397.512 289.83C398.201 290.239 398.773 290.856 399.227 291.682C399.682 292.508 399.909 293.614 399.909 295V306.5H397.227V304.136H397.091C396.909 304.515 396.606 304.92 396.182 305.352C395.758 305.784 395.193 306.152 394.489 306.455C393.784 306.758 392.924 306.909 391.909 306.909ZM392.318 304.5C393.379 304.5 394.273 304.292 395 303.875C395.735 303.458 396.288 302.92 396.659 302.261C397.038 301.602 397.227 300.909 397.227 300.182V297.727C397.114 297.864 396.864 297.989 396.477 298.102C396.099 298.208 395.659 298.303 395.159 298.386C394.667 298.462 394.186 298.53 393.716 298.591C393.254 298.644 392.879 298.689 392.591 298.727C391.894 298.818 391.243 298.966 390.637 299.17C390.038 299.367 389.553 299.667 389.182 300.068C388.818 300.462 388.637 301 388.637 301.682C388.637 302.614 388.981 303.318 389.671 303.795C390.368 304.265 391.25 304.5 392.318 304.5ZM407.486 296V306.5H404.804V289.045H407.395V291.773H407.622C408.031 290.886 408.653 290.174 409.486 289.636C410.319 289.091 411.395 288.818 412.713 288.818C413.895 288.818 414.929 289.061 415.816 289.545C416.702 290.023 417.391 290.75 417.884 291.727C418.376 292.697 418.622 293.924 418.622 295.409V306.5H415.941V295.591C415.941 294.22 415.584 293.152 414.872 292.386C414.16 291.614 413.183 291.227 411.941 291.227C411.084 291.227 410.319 291.413 409.645 291.784C408.978 292.155 408.452 292.697 408.066 293.409C407.679 294.121 407.486 294.985 407.486 296ZM435.887 292.955L433.477 293.636C433.326 293.235 433.102 292.845 432.807 292.466C432.519 292.08 432.125 291.761 431.625 291.511C431.125 291.261 430.485 291.136 429.705 291.136C428.637 291.136 427.746 291.383 427.034 291.875C426.33 292.36 425.977 292.977 425.977 293.727C425.977 294.394 426.22 294.92 426.705 295.307C427.19 295.693 427.947 296.015 428.977 296.273L431.568 296.909C433.129 297.288 434.292 297.867 435.057 298.648C435.822 299.42 436.205 300.417 436.205 301.636C436.205 302.636 435.917 303.53 435.341 304.318C434.773 305.106 433.977 305.727 432.955 306.182C431.932 306.636 430.743 306.864 429.387 306.864C427.606 306.864 426.133 306.477 424.966 305.705C423.799 304.932 423.061 303.803 422.75 302.318L425.296 301.682C425.538 302.621 425.996 303.326 426.671 303.795C427.352 304.265 428.243 304.5 429.341 304.5C430.591 304.5 431.584 304.235 432.318 303.705C433.061 303.167 433.432 302.523 433.432 301.773C433.432 301.167 433.22 300.659 432.796 300.25C432.371 299.833 431.72 299.523 430.841 299.318L427.932 298.636C426.334 298.258 425.159 297.67 424.409 296.875C423.667 296.072 423.296 295.068 423.296 293.864C423.296 292.879 423.572 292.008 424.125 291.25C424.686 290.492 425.447 289.898 426.409 289.466C427.379 289.034 428.477 288.818 429.705 288.818C431.432 288.818 432.788 289.197 433.773 289.955C434.765 290.712 435.47 291.712 435.887 292.955ZM448.014 289.045V291.318H438.605V289.045H448.014ZM441.423 306.5V286.636C441.423 285.636 441.658 284.803 442.128 284.136C442.598 283.47 443.208 282.97 443.958 282.636C444.708 282.303 445.499 282.136 446.333 282.136C446.992 282.136 447.53 282.189 447.946 282.295C448.363 282.402 448.673 282.5 448.878 282.591L448.105 284.909C447.969 284.864 447.78 284.807 447.537 284.739C447.302 284.67 446.992 284.636 446.605 284.636C445.719 284.636 445.079 284.86 444.685 285.307C444.298 285.754 444.105 286.409 444.105 287.273V306.5H441.423ZM458.145 306.864C456.569 306.864 455.187 306.489 453.997 305.739C452.816 304.989 451.891 303.939 451.225 302.591C450.566 301.242 450.236 299.667 450.236 297.864C450.236 296.045 450.566 294.458 451.225 293.102C451.891 291.746 452.816 290.693 453.997 289.943C455.187 289.193 456.569 288.818 458.145 288.818C459.721 288.818 461.1 289.193 462.281 289.943C463.471 290.693 464.395 291.746 465.054 293.102C465.721 294.458 466.054 296.045 466.054 297.864C466.054 299.667 465.721 301.242 465.054 302.591C464.395 303.939 463.471 304.989 462.281 305.739C461.1 306.489 459.721 306.864 458.145 306.864ZM458.145 304.455C459.342 304.455 460.327 304.148 461.1 303.534C461.872 302.92 462.444 302.114 462.816 301.114C463.187 300.114 463.372 299.03 463.372 297.864C463.372 296.697 463.187 295.61 462.816 294.602C462.444 293.595 461.872 292.78 461.1 292.159C460.327 291.538 459.342 291.227 458.145 291.227C456.948 291.227 455.963 291.538 455.191 292.159C454.418 292.78 453.846 293.595 453.475 294.602C453.103 295.61 452.918 296.697 452.918 297.864C452.918 299.03 453.103 300.114 453.475 301.114C453.846 302.114 454.418 302.92 455.191 303.534C455.963 304.148 456.948 304.455 458.145 304.455ZM470.148 306.5V289.045H472.739V291.682H472.921C473.239 290.818 473.815 290.117 474.648 289.58C475.481 289.042 476.421 288.773 477.466 288.773C477.663 288.773 477.909 288.777 478.205 288.784C478.5 288.792 478.724 288.803 478.875 288.818V291.545C478.784 291.523 478.576 291.489 478.25 291.443C477.932 291.39 477.595 291.364 477.239 291.364C476.39 291.364 475.633 291.542 474.966 291.898C474.307 292.246 473.784 292.731 473.398 293.352C473.019 293.966 472.83 294.667 472.83 295.455V306.5H470.148ZM482.054 306.5V289.045H484.645V291.773H484.872C485.236 290.841 485.823 290.117 486.634 289.602C487.444 289.08 488.418 288.818 489.554 288.818C490.706 288.818 491.664 289.08 492.429 289.602C493.202 290.117 493.804 290.841 494.236 291.773H494.418C494.865 290.871 495.535 290.155 496.429 289.625C497.323 289.087 498.395 288.818 499.645 288.818C501.206 288.818 502.482 289.307 503.475 290.284C504.467 291.254 504.963 292.765 504.963 294.818V306.5H502.281V294.818C502.281 293.53 501.929 292.61 501.225 292.057C500.52 291.504 499.691 291.227 498.736 291.227C497.509 291.227 496.558 291.598 495.884 292.341C495.209 293.076 494.872 294.008 494.872 295.136V306.5H492.145V294.545C492.145 293.553 491.823 292.754 491.179 292.148C490.535 291.534 489.706 291.227 488.691 291.227C487.994 291.227 487.342 291.413 486.736 291.784C486.137 292.155 485.653 292.67 485.281 293.33C484.918 293.981 484.736 294.735 484.736 295.591V306.5H482.054ZM522.048 283.227V306.5H519.23V283.227H522.048ZM527.335 306.5V289.045H529.926V291.773H530.154C530.517 290.841 531.104 290.117 531.915 289.602C532.726 289.08 533.699 288.818 534.835 288.818C535.987 288.818 536.945 289.08 537.71 289.602C538.483 290.117 539.085 290.841 539.517 291.773H539.699C540.146 290.871 540.816 290.155 541.71 289.625C542.604 289.087 543.676 288.818 544.926 288.818C546.487 288.818 547.763 289.307 548.756 290.284C549.748 291.254 550.244 292.765 550.244 294.818V306.5H547.563V294.818C547.563 293.53 547.21 292.61 546.506 292.057C545.801 291.504 544.972 291.227 544.017 291.227C542.79 291.227 541.839 291.598 541.165 292.341C540.491 293.076 540.154 294.008 540.154 295.136V306.5H537.426V294.545C537.426 293.553 537.104 292.754 536.46 292.148C535.816 291.534 534.987 291.227 533.972 291.227C533.275 291.227 532.623 291.413 532.017 291.784C531.419 292.155 530.934 292.67 530.563 293.33C530.199 293.981 530.017 294.735 530.017 295.591V306.5H527.335ZM560.284 306.909C559.178 306.909 558.174 306.701 557.273 306.284C556.371 305.86 555.655 305.25 555.125 304.455C554.595 303.652 554.33 302.682 554.33 301.545C554.33 300.545 554.527 299.735 554.921 299.114C555.315 298.485 555.841 297.992 556.5 297.636C557.159 297.28 557.887 297.015 558.682 296.841C559.485 296.659 560.292 296.515 561.102 296.409C562.163 296.273 563.023 296.17 563.682 296.102C564.349 296.027 564.834 295.902 565.137 295.727C565.447 295.553 565.602 295.25 565.602 294.818V294.727C565.602 293.606 565.296 292.735 564.682 292.114C564.076 291.492 563.155 291.182 561.921 291.182C560.64 291.182 559.637 291.462 558.909 292.023C558.182 292.583 557.671 293.182 557.375 293.818L554.83 292.909C555.284 291.848 555.89 291.023 556.648 290.432C557.413 289.833 558.246 289.417 559.148 289.182C560.057 288.939 560.951 288.818 561.83 288.818C562.39 288.818 563.034 288.886 563.762 289.023C564.496 289.152 565.205 289.42 565.887 289.83C566.576 290.239 567.148 290.856 567.602 291.682C568.057 292.508 568.284 293.614 568.284 295V306.5H565.602V304.136H565.466C565.284 304.515 564.981 304.92 564.557 305.352C564.133 305.784 563.568 306.152 562.864 306.455C562.159 306.758 561.299 306.909 560.284 306.909ZM560.693 304.5C561.754 304.5 562.648 304.292 563.375 303.875C564.11 303.458 564.663 302.92 565.034 302.261C565.413 301.602 565.602 300.909 565.602 300.182V297.727C565.489 297.864 565.239 297.989 564.852 298.102C564.474 298.208 564.034 298.303 563.534 298.386C563.042 298.462 562.561 298.53 562.091 298.591C561.629 298.644 561.254 298.689 560.966 298.727C560.269 298.818 559.618 298.966 559.012 299.17C558.413 299.367 557.928 299.667 557.557 300.068C557.193 300.462 557.012 301 557.012 301.682C557.012 302.614 557.356 303.318 558.046 303.795C558.743 304.265 559.625 304.5 560.693 304.5ZM580.225 313.409C578.929 313.409 577.816 313.242 576.884 312.909C575.952 312.583 575.175 312.152 574.554 311.614C573.941 311.083 573.452 310.515 573.088 309.909L575.225 308.409C575.467 308.727 575.774 309.091 576.145 309.5C576.516 309.917 577.024 310.277 577.668 310.58C578.319 310.89 579.172 311.045 580.225 311.045C581.634 311.045 582.797 310.705 583.713 310.023C584.63 309.341 585.088 308.273 585.088 306.818V303.273H584.861C584.664 303.591 584.384 303.985 584.02 304.455C583.664 304.917 583.149 305.33 582.475 305.693C581.808 306.049 580.906 306.227 579.77 306.227C578.361 306.227 577.096 305.894 575.975 305.227C574.861 304.561 573.978 303.591 573.327 302.318C572.683 301.045 572.361 299.5 572.361 297.682C572.361 295.894 572.675 294.337 573.304 293.011C573.933 291.678 574.808 290.648 575.929 289.92C577.05 289.186 578.346 288.818 579.816 288.818C580.952 288.818 581.853 289.008 582.52 289.386C583.194 289.758 583.709 290.182 584.066 290.659C584.429 291.129 584.709 291.515 584.906 291.818H585.179V289.045H587.77V307C587.77 308.5 587.429 309.72 586.747 310.659C586.073 311.606 585.164 312.299 584.02 312.739C582.884 313.186 581.619 313.409 580.225 313.409ZM580.134 303.818C581.209 303.818 582.119 303.572 582.861 303.08C583.603 302.587 584.168 301.879 584.554 300.955C584.941 300.03 585.134 298.924 585.134 297.636C585.134 296.379 584.944 295.269 584.566 294.307C584.187 293.345 583.626 292.591 582.884 292.045C582.141 291.5 581.225 291.227 580.134 291.227C578.997 291.227 578.05 291.515 577.293 292.091C576.543 292.667 575.978 293.439 575.6 294.409C575.228 295.379 575.043 296.455 575.043 297.636C575.043 298.848 575.232 299.92 575.611 300.852C575.997 301.777 576.566 302.504 577.316 303.034C578.073 303.557 579.012 303.818 580.134 303.818ZM599.997 306.864C598.316 306.864 596.865 306.492 595.645 305.75C594.433 305 593.497 303.955 592.838 302.614C592.187 301.265 591.861 299.697 591.861 297.909C591.861 296.121 592.187 294.545 592.838 293.182C593.497 291.811 594.414 290.742 595.588 289.977C596.77 289.205 598.149 288.818 599.725 288.818C600.634 288.818 601.531 288.97 602.418 289.273C603.304 289.576 604.111 290.068 604.838 290.75C605.566 291.424 606.145 292.318 606.577 293.432C607.009 294.545 607.225 295.917 607.225 297.545V298.682H593.77V296.364H604.497C604.497 295.379 604.3 294.5 603.906 293.727C603.52 292.955 602.967 292.345 602.247 291.898C601.535 291.451 600.694 291.227 599.725 291.227C598.656 291.227 597.732 291.492 596.952 292.023C596.179 292.545 595.584 293.227 595.168 294.068C594.751 294.909 594.543 295.811 594.543 296.773V298.318C594.543 299.636 594.77 300.754 595.225 301.67C595.687 302.58 596.327 303.273 597.145 303.75C597.963 304.22 598.914 304.455 599.997 304.455C600.702 304.455 601.338 304.356 601.906 304.159C602.482 303.955 602.978 303.652 603.395 303.25C603.812 302.841 604.134 302.333 604.361 301.727L606.952 302.455C606.679 303.333 606.221 304.106 605.577 304.773C604.933 305.432 604.137 305.947 603.191 306.318C602.244 306.682 601.179 306.864 599.997 306.864ZM623.668 292.955L621.259 293.636C621.107 293.235 620.884 292.845 620.588 292.466C620.3 292.08 619.906 291.761 619.406 291.511C618.906 291.261 618.266 291.136 617.486 291.136C616.418 291.136 615.528 291.383 614.816 291.875C614.111 292.36 613.759 292.977 613.759 293.727C613.759 294.394 614.001 294.92 614.486 295.307C614.971 295.693 615.728 296.015 616.759 296.273L619.35 296.909C620.91 297.288 622.073 297.867 622.838 298.648C623.603 299.42 623.986 300.417 623.986 301.636C623.986 302.636 623.698 303.53 623.122 304.318C622.554 305.106 621.759 305.727 620.736 306.182C619.713 306.636 618.524 306.864 617.168 306.864C615.387 306.864 613.914 306.477 612.747 305.705C611.581 304.932 610.842 303.803 610.531 302.318L613.077 301.682C613.319 302.621 613.778 303.326 614.452 303.795C615.134 304.265 616.024 304.5 617.122 304.5C618.372 304.5 619.365 304.235 620.1 303.705C620.842 303.167 621.213 302.523 621.213 301.773C621.213 301.167 621.001 300.659 620.577 300.25C620.153 299.833 619.501 299.523 618.622 299.318L615.713 298.636C614.115 298.258 612.941 297.67 612.191 296.875C611.448 296.072 611.077 295.068 611.077 293.864C611.077 292.879 611.353 292.008 611.906 291.25C612.467 290.492 613.228 289.898 614.191 289.466C615.16 289.034 616.259 288.818 617.486 288.818C619.213 288.818 620.569 289.197 621.554 289.955C622.547 290.712 623.251 291.712 623.668 292.955ZM637.023 306.5V289.045H639.705V306.5H637.023ZM638.387 286.136C637.864 286.136 637.413 285.958 637.034 285.602C636.663 285.246 636.477 284.818 636.477 284.318C636.477 283.818 636.663 283.39 637.034 283.034C637.413 282.678 637.864 282.5 638.387 282.5C638.909 282.5 639.356 282.678 639.727 283.034C640.106 283.39 640.296 283.818 640.296 284.318C640.296 284.818 640.106 285.246 639.727 285.602C639.356 285.958 638.909 286.136 638.387 286.136ZM647.298 296V306.5H644.617V289.045H647.208V291.773H647.435C647.844 290.886 648.465 290.174 649.298 289.636C650.132 289.091 651.208 288.818 652.526 288.818C653.708 288.818 654.742 289.061 655.628 289.545C656.514 290.023 657.204 290.75 657.696 291.727C658.189 292.697 658.435 293.924 658.435 295.409V306.5H655.753V295.591C655.753 294.22 655.397 293.152 654.685 292.386C653.973 291.614 652.995 291.227 651.753 291.227C650.897 291.227 650.132 291.413 649.458 291.784C648.791 292.155 648.264 292.697 647.878 293.409C647.492 294.121 647.298 294.985 647.298 296ZM670.926 289.045V291.318H661.881V289.045H670.926ZM664.517 284.864H667.199V301.5C667.199 302.258 667.309 302.826 667.529 303.205C667.756 303.576 668.044 303.826 668.392 303.955C668.748 304.076 669.123 304.136 669.517 304.136C669.813 304.136 670.055 304.121 670.244 304.091C670.434 304.053 670.585 304.023 670.699 304L671.244 306.409C671.063 306.477 670.809 306.545 670.483 306.614C670.157 306.689 669.744 306.727 669.244 306.727C668.487 306.727 667.744 306.564 667.017 306.239C666.298 305.913 665.699 305.417 665.222 304.75C664.752 304.083 664.517 303.242 664.517 302.227V284.864ZM681.864 306.864C680.288 306.864 678.905 306.489 677.716 305.739C676.534 304.989 675.61 303.939 674.943 302.591C674.284 301.242 673.955 299.667 673.955 297.864C673.955 296.045 674.284 294.458 674.943 293.102C675.61 291.746 676.534 290.693 677.716 289.943C678.905 289.193 680.288 288.818 681.864 288.818C683.44 288.818 684.818 289.193 686 289.943C687.19 290.693 688.114 291.746 688.773 293.102C689.44 294.458 689.773 296.045 689.773 297.864C689.773 299.667 689.44 301.242 688.773 302.591C688.114 303.939 687.19 304.989 686 305.739C684.818 306.489 683.44 306.864 681.864 306.864ZM681.864 304.455C683.061 304.455 684.046 304.148 684.818 303.534C685.591 302.92 686.163 302.114 686.534 301.114C686.905 300.114 687.091 299.03 687.091 297.864C687.091 296.697 686.905 295.61 686.534 294.602C686.163 293.595 685.591 292.78 684.818 292.159C684.046 291.538 683.061 291.227 681.864 291.227C680.667 291.227 679.682 291.538 678.909 292.159C678.137 292.78 677.565 293.595 677.193 294.602C676.822 295.61 676.637 296.697 676.637 297.864C676.637 299.03 676.822 300.114 677.193 301.114C677.565 302.114 678.137 302.92 678.909 303.534C679.682 304.148 680.667 304.455 681.864 304.455ZM715.958 289.045C715.821 287.894 715.268 287 714.298 286.364C713.329 285.727 712.139 285.409 710.73 285.409C709.7 285.409 708.798 285.576 708.026 285.909C707.261 286.242 706.662 286.701 706.23 287.284C705.806 287.867 705.594 288.53 705.594 289.273C705.594 289.894 705.742 290.428 706.037 290.875C706.34 291.314 706.727 291.682 707.196 291.977C707.666 292.265 708.158 292.504 708.673 292.693C709.189 292.875 709.662 293.023 710.094 293.136L712.458 293.773C713.064 293.932 713.738 294.152 714.48 294.432C715.23 294.712 715.946 295.095 716.628 295.58C717.317 296.057 717.886 296.67 718.333 297.42C718.78 298.17 719.003 299.091 719.003 300.182C719.003 301.439 718.673 302.576 718.014 303.591C717.363 304.606 716.408 305.413 715.151 306.011C713.901 306.61 712.382 306.909 710.594 306.909C708.927 306.909 707.484 306.64 706.264 306.102C705.052 305.564 704.098 304.814 703.401 303.852C702.711 302.89 702.321 301.773 702.23 300.5H705.139C705.215 301.379 705.511 302.106 706.026 302.682C706.548 303.25 707.208 303.674 708.003 303.955C708.806 304.227 709.67 304.364 710.594 304.364C711.67 304.364 712.636 304.189 713.492 303.841C714.348 303.485 715.026 302.992 715.526 302.364C716.026 301.727 716.276 300.985 716.276 300.136C716.276 299.364 716.06 298.735 715.628 298.25C715.196 297.765 714.628 297.371 713.923 297.068C713.219 296.765 712.458 296.5 711.639 296.273L708.776 295.455C706.958 294.932 705.518 294.186 704.458 293.216C703.397 292.246 702.867 290.977 702.867 289.409C702.867 288.106 703.219 286.97 703.923 286C704.636 285.023 705.59 284.265 706.787 283.727C707.992 283.182 709.336 282.909 710.821 282.909C712.321 282.909 713.655 283.178 714.821 283.716C715.988 284.246 716.912 284.973 717.594 285.898C718.283 286.822 718.647 287.871 718.685 289.045H715.958ZM730.364 306.864C728.727 306.864 727.318 306.477 726.137 305.705C724.955 304.932 724.046 303.867 723.409 302.511C722.773 301.155 722.455 299.606 722.455 297.864C722.455 296.091 722.78 294.527 723.432 293.17C724.091 291.807 725.008 290.742 726.182 289.977C727.364 289.205 728.743 288.818 730.318 288.818C731.546 288.818 732.652 289.045 733.637 289.5C734.621 289.955 735.428 290.591 736.057 291.409C736.686 292.227 737.076 293.182 737.227 294.273H734.546C734.341 293.477 733.887 292.773 733.182 292.159C732.485 291.538 731.546 291.227 730.364 291.227C729.318 291.227 728.402 291.5 727.614 292.045C726.834 292.583 726.224 293.345 725.784 294.33C725.352 295.307 725.137 296.455 725.137 297.773C725.137 299.121 725.349 300.295 725.773 301.295C726.205 302.295 726.811 303.072 727.591 303.625C728.379 304.178 729.303 304.455 730.364 304.455C731.061 304.455 731.693 304.333 732.262 304.091C732.83 303.848 733.311 303.5 733.705 303.045C734.099 302.591 734.379 302.045 734.546 301.409H737.227C737.076 302.439 736.701 303.367 736.102 304.193C735.512 305.011 734.727 305.663 733.75 306.148C732.78 306.625 731.652 306.864 730.364 306.864ZM746.284 306.909C745.178 306.909 744.174 306.701 743.273 306.284C742.371 305.86 741.655 305.25 741.125 304.455C740.595 303.652 740.33 302.682 740.33 301.545C740.33 300.545 740.527 299.735 740.921 299.114C741.315 298.485 741.841 297.992 742.5 297.636C743.159 297.28 743.887 297.015 744.682 296.841C745.485 296.659 746.292 296.515 747.102 296.409C748.163 296.273 749.023 296.17 749.682 296.102C750.349 296.027 750.834 295.902 751.137 295.727C751.447 295.553 751.602 295.25 751.602 294.818V294.727C751.602 293.606 751.296 292.735 750.682 292.114C750.076 291.492 749.155 291.182 747.921 291.182C746.64 291.182 745.637 291.462 744.909 292.023C744.182 292.583 743.671 293.182 743.375 293.818L740.83 292.909C741.284 291.848 741.89 291.023 742.648 290.432C743.413 289.833 744.246 289.417 745.148 289.182C746.057 288.939 746.951 288.818 747.83 288.818C748.39 288.818 749.034 288.886 749.762 289.023C750.496 289.152 751.205 289.42 751.887 289.83C752.576 290.239 753.148 290.856 753.602 291.682C754.057 292.508 754.284 293.614 754.284 295V306.5H751.602V304.136H751.466C751.284 304.515 750.981 304.92 750.557 305.352C750.133 305.784 749.568 306.152 748.864 306.455C748.159 306.758 747.299 306.909 746.284 306.909ZM746.693 304.5C747.754 304.5 748.648 304.292 749.375 303.875C750.11 303.458 750.663 302.92 751.034 302.261C751.413 301.602 751.602 300.909 751.602 300.182V297.727C751.489 297.864 751.239 297.989 750.852 298.102C750.474 298.208 750.034 298.303 749.534 298.386C749.042 298.462 748.561 298.53 748.091 298.591C747.629 298.644 747.254 298.689 746.966 298.727C746.269 298.818 745.618 298.966 745.012 299.17C744.413 299.367 743.928 299.667 743.557 300.068C743.193 300.462 743.012 301 743.012 301.682C743.012 302.614 743.356 303.318 744.046 303.795C744.743 304.265 745.625 304.5 746.693 304.5ZM761.861 283.227V306.5H759.179V283.227H761.861ZM771.909 306.909C770.803 306.909 769.799 306.701 768.898 306.284C767.996 305.86 767.28 305.25 766.75 304.455C766.22 303.652 765.955 302.682 765.955 301.545C765.955 300.545 766.152 299.735 766.546 299.114C766.94 298.485 767.466 297.992 768.125 297.636C768.784 297.28 769.512 297.015 770.307 296.841C771.11 296.659 771.917 296.515 772.727 296.409C773.788 296.273 774.648 296.17 775.307 296.102C775.974 296.027 776.459 295.902 776.762 295.727C777.072 295.553 777.227 295.25 777.227 294.818V294.727C777.227 293.606 776.921 292.735 776.307 292.114C775.701 291.492 774.78 291.182 773.546 291.182C772.265 291.182 771.262 291.462 770.534 292.023C769.807 292.583 769.296 293.182 769 293.818L766.455 292.909C766.909 291.848 767.515 291.023 768.273 290.432C769.038 289.833 769.871 289.417 770.773 289.182C771.682 288.939 772.576 288.818 773.455 288.818C774.015 288.818 774.659 288.886 775.387 289.023C776.121 289.152 776.83 289.42 777.512 289.83C778.201 290.239 778.773 290.856 779.227 291.682C779.682 292.508 779.909 293.614 779.909 295V306.5H777.227V304.136H777.091C776.909 304.515 776.606 304.92 776.182 305.352C775.758 305.784 775.193 306.152 774.489 306.455C773.784 306.758 772.924 306.909 771.909 306.909ZM772.318 304.5C773.379 304.5 774.273 304.292 775 303.875C775.735 303.458 776.288 302.92 776.659 302.261C777.038 301.602 777.227 300.909 777.227 300.182V297.727C777.114 297.864 776.864 297.989 776.477 298.102C776.099 298.208 775.659 298.303 775.159 298.386C774.667 298.462 774.186 298.53 773.716 298.591C773.254 298.644 772.879 298.689 772.591 298.727C771.894 298.818 771.243 298.966 770.637 299.17C770.038 299.367 769.553 299.667 769.182 300.068C768.818 300.462 768.637 301 768.637 301.682C768.637 302.614 768.981 303.318 769.671 303.795C770.368 304.265 771.25 304.5 772.318 304.5ZM785.168 306.5V283.227H787.85V291.818H788.077C788.274 291.515 788.547 291.129 788.895 290.659C789.251 290.182 789.759 289.758 790.418 289.386C791.084 289.008 791.986 288.818 793.122 288.818C794.592 288.818 795.887 289.186 797.009 289.92C798.13 290.655 799.005 291.697 799.634 293.045C800.262 294.394 800.577 295.985 800.577 297.818C800.577 299.667 800.262 301.269 799.634 302.625C799.005 303.973 798.134 305.019 797.02 305.761C795.906 306.496 794.622 306.864 793.168 306.864C792.047 306.864 791.149 306.678 790.475 306.307C789.8 305.928 789.281 305.5 788.918 305.023C788.554 304.538 788.274 304.136 788.077 303.818H787.759V306.5H785.168ZM787.804 297.773C787.804 299.091 787.997 300.254 788.384 301.261C788.77 302.261 789.334 303.045 790.077 303.614C790.819 304.174 791.728 304.455 792.804 304.455C793.925 304.455 794.861 304.159 795.611 303.568C796.369 302.97 796.937 302.167 797.316 301.159C797.702 300.144 797.895 299.015 797.895 297.773C797.895 296.545 797.706 295.439 797.327 294.455C796.956 293.462 796.391 292.678 795.634 292.102C794.884 291.519 793.941 291.227 792.804 291.227C791.713 291.227 790.797 291.504 790.054 292.057C789.312 292.602 788.751 293.367 788.372 294.352C787.994 295.33 787.804 296.47 787.804 297.773ZM807.361 283.227V306.5H804.679V283.227H807.361ZM819.591 306.864C817.909 306.864 816.459 306.492 815.239 305.75C814.027 305 813.091 303.955 812.432 302.614C811.78 301.265 811.455 299.697 811.455 297.909C811.455 296.121 811.78 294.545 812.432 293.182C813.091 291.811 814.008 290.742 815.182 289.977C816.364 289.205 817.743 288.818 819.318 288.818C820.227 288.818 821.125 288.97 822.012 289.273C822.898 289.576 823.705 290.068 824.432 290.75C825.159 291.424 825.739 292.318 826.171 293.432C826.602 294.545 826.818 295.917 826.818 297.545V298.682H813.364V296.364H824.091C824.091 295.379 823.894 294.5 823.5 293.727C823.114 292.955 822.561 292.345 821.841 291.898C821.129 291.451 820.288 291.227 819.318 291.227C818.25 291.227 817.326 291.492 816.546 292.023C815.773 292.545 815.178 293.227 814.762 294.068C814.345 294.909 814.137 295.811 814.137 296.773V298.318C814.137 299.636 814.364 300.754 814.818 301.67C815.28 302.58 815.921 303.273 816.739 303.75C817.557 304.22 818.508 304.455 819.591 304.455C820.296 304.455 820.932 304.356 821.5 304.159C822.076 303.955 822.572 303.652 822.989 303.25C823.405 302.841 823.727 302.333 823.955 301.727L826.546 302.455C826.273 303.333 825.815 304.106 825.171 304.773C824.527 305.432 823.731 305.947 822.784 306.318C821.837 306.682 820.773 306.864 819.591 306.864ZM841.216 283.227L848.125 302.818H848.398L855.307 283.227H858.262L849.716 306.5H846.807L838.262 283.227H841.216ZM867.216 306.864C865.534 306.864 864.084 306.492 862.864 305.75C861.652 305 860.716 303.955 860.057 302.614C859.405 301.265 859.08 299.697 859.08 297.909C859.08 296.121 859.405 294.545 860.057 293.182C860.716 291.811 861.633 290.742 862.807 289.977C863.989 289.205 865.368 288.818 866.943 288.818C867.852 288.818 868.75 288.97 869.637 289.273C870.523 289.576 871.33 290.068 872.057 290.75C872.784 291.424 873.364 292.318 873.796 293.432C874.227 294.545 874.443 295.917 874.443 297.545V298.682H860.989V296.364H871.716C871.716 295.379 871.519 294.5 871.125 293.727C870.739 292.955 870.186 292.345 869.466 291.898C868.754 291.451 867.913 291.227 866.943 291.227C865.875 291.227 864.951 291.492 864.171 292.023C863.398 292.545 862.803 293.227 862.387 294.068C861.97 294.909 861.762 295.811 861.762 296.773V298.318C861.762 299.636 861.989 300.754 862.443 301.67C862.905 302.58 863.546 303.273 864.364 303.75C865.182 304.22 866.133 304.455 867.216 304.455C867.921 304.455 868.557 304.356 869.125 304.159C869.701 303.955 870.197 303.652 870.614 303.25C871.03 302.841 871.352 302.333 871.58 301.727L874.171 302.455C873.898 303.333 873.44 304.106 872.796 304.773C872.152 305.432 871.356 305.947 870.409 306.318C869.462 306.682 868.398 306.864 867.216 306.864ZM885.614 306.864C883.977 306.864 882.568 306.477 881.387 305.705C880.205 304.932 879.296 303.867 878.659 302.511C878.023 301.155 877.705 299.606 877.705 297.864C877.705 296.091 878.03 294.527 878.682 293.17C879.341 291.807 880.258 290.742 881.432 289.977C882.614 289.205 883.993 288.818 885.568 288.818C886.796 288.818 887.902 289.045 888.887 289.5C889.871 289.955 890.678 290.591 891.307 291.409C891.936 292.227 892.326 293.182 892.477 294.273H889.796C889.591 293.477 889.137 292.773 888.432 292.159C887.735 291.538 886.796 291.227 885.614 291.227C884.568 291.227 883.652 291.5 882.864 292.045C882.084 292.583 881.474 293.345 881.034 294.33C880.602 295.307 880.387 296.455 880.387 297.773C880.387 299.121 880.599 300.295 881.023 301.295C881.455 302.295 882.061 303.072 882.841 303.625C883.629 304.178 884.553 304.455 885.614 304.455C886.311 304.455 886.943 304.333 887.512 304.091C888.08 303.848 888.561 303.5 888.955 303.045C889.349 302.591 889.629 302.045 889.796 301.409H892.477C892.326 302.439 891.951 303.367 891.352 304.193C890.762 305.011 889.977 305.663 889 306.148C888.03 306.625 886.902 306.864 885.614 306.864ZM903.989 289.045V291.318H894.943V289.045H903.989ZM897.58 284.864H900.262V301.5C900.262 302.258 900.371 302.826 900.591 303.205C900.818 303.576 901.106 303.826 901.455 303.955C901.811 304.076 902.186 304.136 902.58 304.136C902.875 304.136 903.118 304.121 903.307 304.091C903.496 304.053 903.648 304.023 903.762 304L904.307 306.409C904.125 306.477 903.871 306.545 903.546 306.614C903.22 306.689 902.807 306.727 902.307 306.727C901.549 306.727 900.807 306.564 900.08 306.239C899.36 305.913 898.762 305.417 898.284 304.75C897.815 304.083 897.58 303.242 897.58 302.227V284.864ZM914.926 306.864C913.351 306.864 911.968 306.489 910.779 305.739C909.597 304.989 908.673 303.939 908.006 302.591C907.347 301.242 907.017 299.667 907.017 297.864C907.017 296.045 907.347 294.458 908.006 293.102C908.673 291.746 909.597 290.693 910.779 289.943C911.968 289.193 913.351 288.818 914.926 288.818C916.502 288.818 917.881 289.193 919.063 289.943C920.252 290.693 921.176 291.746 921.835 293.102C922.502 294.458 922.835 296.045 922.835 297.864C922.835 299.667 922.502 301.242 921.835 302.591C921.176 303.939 920.252 304.989 919.063 305.739C917.881 306.489 916.502 306.864 914.926 306.864ZM914.926 304.455C916.123 304.455 917.108 304.148 917.881 303.534C918.654 302.92 919.226 302.114 919.597 301.114C919.968 300.114 920.154 299.03 920.154 297.864C920.154 296.697 919.968 295.61 919.597 294.602C919.226 293.595 918.654 292.78 917.881 292.159C917.108 291.538 916.123 291.227 914.926 291.227C913.729 291.227 912.744 291.538 911.972 292.159C911.199 292.78 910.627 293.595 910.256 294.602C909.885 295.61 909.699 296.697 909.699 297.864C909.699 299.03 909.885 300.114 910.256 301.114C910.627 302.114 911.199 302.92 911.972 303.534C912.744 304.148 913.729 304.455 914.926 304.455ZM926.929 306.5V289.045H929.52V291.682H929.702C930.02 290.818 930.596 290.117 931.429 289.58C932.262 289.042 933.202 288.773 934.247 288.773C934.444 288.773 934.691 288.777 934.986 288.784C935.281 288.792 935.505 288.803 935.656 288.818V291.545C935.566 291.523 935.357 291.489 935.031 291.443C934.713 291.39 934.376 291.364 934.02 291.364C933.172 291.364 932.414 291.542 931.747 291.898C931.088 292.246 930.566 292.731 930.179 293.352C929.8 293.966 929.611 294.667 929.611 295.455V306.5H926.929ZM951.199 292.955L948.79 293.636C948.638 293.235 948.415 292.845 948.119 292.466C947.832 292.08 947.438 291.761 946.938 291.511C946.438 291.261 945.798 291.136 945.017 291.136C943.949 291.136 943.059 291.383 942.347 291.875C941.642 292.36 941.29 292.977 941.29 293.727C941.29 294.394 941.532 294.92 942.017 295.307C942.502 295.693 943.26 296.015 944.29 296.273L946.881 296.909C948.441 297.288 949.604 297.867 950.369 298.648C951.135 299.42 951.517 300.417 951.517 301.636C951.517 302.636 951.229 303.53 950.654 304.318C950.085 305.106 949.29 305.727 948.267 306.182C947.244 306.636 946.055 306.864 944.699 306.864C942.919 306.864 941.445 306.477 940.279 305.705C939.112 304.932 938.373 303.803 938.063 302.318L940.608 301.682C940.851 302.621 941.309 303.326 941.983 303.795C942.665 304.265 943.555 304.5 944.654 304.5C945.904 304.5 946.896 304.235 947.631 303.705C948.373 303.167 948.744 302.523 948.744 301.773C948.744 301.167 948.532 300.659 948.108 300.25C947.684 299.833 947.032 299.523 946.154 299.318L943.244 298.636C941.646 298.258 940.472 297.67 939.722 296.875C938.979 296.072 938.608 295.068 938.608 293.864C938.608 292.879 938.885 292.008 939.438 291.25C939.998 290.492 940.76 289.898 941.722 289.466C942.691 289.034 943.79 288.818 945.017 288.818C946.744 288.818 948.101 289.197 949.085 289.955C950.078 290.712 950.782 291.712 951.199 292.955Z" fill="#4A5568"/>
<path d="M369.852 341.5H367.739C367.614 340.892 367.395 340.358 367.083 339.898C366.776 339.438 366.401 339.051 365.958 338.739C365.52 338.42 365.034 338.182 364.5 338.023C363.966 337.864 363.409 337.784 362.83 337.784C361.773 337.784 360.816 338.051 359.958 338.585C359.105 339.119 358.426 339.906 357.921 340.946C357.421 341.986 357.171 343.261 357.171 344.773C357.171 346.284 357.421 347.56 357.921 348.599C358.426 349.639 359.105 350.426 359.958 350.96C360.816 351.494 361.773 351.761 362.83 351.761C363.409 351.761 363.966 351.682 364.5 351.523C365.034 351.364 365.52 351.128 365.958 350.815C366.401 350.497 366.776 350.108 367.083 349.648C367.395 349.182 367.614 348.648 367.739 348.045H369.852C369.693 348.937 369.404 349.736 368.983 350.44C368.563 351.145 368.04 351.744 367.415 352.239C366.79 352.727 366.088 353.099 365.31 353.355C364.537 353.611 363.71 353.739 362.83 353.739C361.341 353.739 360.017 353.375 358.858 352.648C357.699 351.92 356.787 350.886 356.122 349.545C355.458 348.205 355.125 346.614 355.125 344.773C355.125 342.932 355.458 341.341 356.122 340C356.787 338.659 357.699 337.625 358.858 336.898C360.017 336.17 361.341 335.807 362.83 335.807C363.71 335.807 364.537 335.935 365.31 336.19C366.088 336.446 366.79 336.821 367.415 337.315C368.04 337.804 368.563 338.401 368.983 339.105C369.404 339.804 369.693 340.602 369.852 341.5ZM378.313 353.773C377.132 353.773 376.095 353.491 375.203 352.929C374.316 352.366 373.623 351.58 373.123 350.568C372.629 349.557 372.382 348.375 372.382 347.023C372.382 345.659 372.629 344.469 373.123 343.452C373.623 342.435 374.316 341.645 375.203 341.082C376.095 340.52 377.132 340.239 378.313 340.239C379.495 340.239 380.529 340.52 381.416 341.082C382.308 341.645 383.001 342.435 383.495 343.452C383.995 344.469 384.245 345.659 384.245 347.023C384.245 348.375 383.995 349.557 383.495 350.568C383.001 351.58 382.308 352.366 381.416 352.929C380.529 353.491 379.495 353.773 378.313 353.773ZM378.313 351.966C379.211 351.966 379.95 351.736 380.529 351.276C381.109 350.815 381.538 350.21 381.816 349.46C382.095 348.71 382.234 347.898 382.234 347.023C382.234 346.148 382.095 345.332 381.816 344.577C381.538 343.821 381.109 343.21 380.529 342.744C379.95 342.278 379.211 342.045 378.313 342.045C377.416 342.045 376.677 342.278 376.097 342.744C375.518 343.21 375.089 343.821 374.811 344.577C374.532 345.332 374.393 346.148 374.393 347.023C374.393 347.898 374.532 348.71 374.811 349.46C375.089 350.21 375.518 350.815 376.097 351.276C376.677 351.736 377.416 351.966 378.313 351.966ZM389.327 345.625V353.5H387.316V340.409H389.259V342.455H389.429C389.736 341.79 390.202 341.256 390.827 340.852C391.452 340.443 392.259 340.239 393.247 340.239C394.134 340.239 394.909 340.42 395.574 340.784C396.239 341.142 396.756 341.688 397.125 342.42C397.494 343.148 397.679 344.068 397.679 345.182V353.5H395.668V345.318C395.668 344.29 395.401 343.489 394.867 342.915C394.333 342.335 393.6 342.045 392.668 342.045C392.026 342.045 391.452 342.185 390.946 342.463C390.446 342.741 390.051 343.148 389.762 343.682C389.472 344.216 389.327 344.864 389.327 345.625ZM411.59 340.409L406.749 353.5H404.704L399.863 340.409H402.045L405.659 350.841H405.795L409.409 340.409H411.59ZM419.265 353.773C418.004 353.773 416.916 353.494 416.001 352.938C415.092 352.375 414.39 351.591 413.896 350.585C413.407 349.574 413.163 348.398 413.163 347.057C413.163 345.716 413.407 344.534 413.896 343.511C414.39 342.483 415.078 341.682 415.958 341.108C416.845 340.528 417.879 340.239 419.061 340.239C419.742 340.239 420.416 340.352 421.08 340.58C421.745 340.807 422.35 341.176 422.896 341.688C423.441 342.193 423.876 342.864 424.2 343.699C424.524 344.534 424.686 345.562 424.686 346.784V347.636H414.595V345.898H422.64C422.64 345.159 422.492 344.5 422.197 343.92C421.907 343.341 421.492 342.884 420.953 342.548C420.419 342.213 419.788 342.045 419.061 342.045C418.259 342.045 417.566 342.244 416.981 342.642C416.401 343.034 415.955 343.545 415.643 344.176C415.33 344.807 415.174 345.483 415.174 346.205V347.364C415.174 348.352 415.345 349.19 415.686 349.878C416.032 350.56 416.512 351.08 417.126 351.438C417.74 351.79 418.453 351.966 419.265 351.966C419.794 351.966 420.271 351.892 420.697 351.744C421.129 351.591 421.501 351.364 421.813 351.062C422.126 350.756 422.367 350.375 422.538 349.92L424.481 350.466C424.276 351.125 423.933 351.705 423.45 352.205C422.967 352.699 422.37 353.085 421.66 353.364C420.95 353.636 420.151 353.773 419.265 353.773ZM427.745 353.5V340.409H429.688V342.386H429.825C430.063 341.739 430.495 341.213 431.12 340.81C431.745 340.406 432.45 340.205 433.234 340.205C433.382 340.205 433.566 340.207 433.788 340.213C434.009 340.219 434.177 340.227 434.291 340.239V342.284C434.222 342.267 434.066 342.241 433.822 342.207C433.583 342.168 433.33 342.148 433.063 342.148C432.427 342.148 431.859 342.281 431.359 342.548C430.865 342.81 430.472 343.173 430.183 343.639C429.899 344.099 429.757 344.625 429.757 345.216V353.5H427.745ZM443.188 340.409V342.114H436.404V340.409H443.188ZM438.382 337.273H440.393V349.75C440.393 350.318 440.475 350.744 440.64 351.028C440.811 351.307 441.026 351.494 441.288 351.591C441.555 351.682 441.836 351.727 442.132 351.727C442.353 351.727 442.535 351.716 442.677 351.693C442.819 351.665 442.933 351.642 443.018 351.625L443.427 353.432C443.291 353.483 443.1 353.534 442.856 353.585C442.612 353.642 442.302 353.67 441.927 353.67C441.359 353.67 440.802 353.548 440.257 353.304C439.717 353.06 439.268 352.688 438.91 352.188C438.558 351.688 438.382 351.057 438.382 350.295V337.273ZM453.237 353.5V336.045H459.134C460.504 336.045 461.623 336.293 462.492 336.787C463.367 337.276 464.015 337.938 464.436 338.773C464.856 339.608 465.066 340.54 465.066 341.568C465.066 342.597 464.856 343.531 464.436 344.372C464.021 345.213 463.379 345.884 462.509 346.384C461.64 346.878 460.526 347.125 459.169 347.125H454.941V345.25H459.1C460.038 345.25 460.791 345.088 461.359 344.764C461.927 344.44 462.339 344.003 462.595 343.452C462.856 342.895 462.987 342.267 462.987 341.568C462.987 340.869 462.856 340.244 462.595 339.693C462.339 339.142 461.924 338.71 461.35 338.398C460.776 338.08 460.015 337.92 459.066 337.92H455.35V353.5H453.237ZM482.312 336.045V353.5H480.267L470.755 339.795H470.585V353.5H468.471V336.045H470.517L480.062 349.784H480.232V336.045H482.312ZM498.473 341.5C498.286 340.926 498.039 340.412 497.732 339.957C497.431 339.497 497.07 339.105 496.649 338.781C496.235 338.457 495.763 338.21 495.235 338.04C494.706 337.869 494.127 337.784 493.496 337.784C492.462 337.784 491.521 338.051 490.675 338.585C489.828 339.119 489.155 339.906 488.655 340.946C488.155 341.986 487.905 343.261 487.905 344.773C487.905 346.284 488.158 347.56 488.664 348.599C489.169 349.639 489.854 350.426 490.718 350.96C491.581 351.494 492.553 351.761 493.632 351.761C494.632 351.761 495.513 351.548 496.274 351.122C497.041 350.69 497.638 350.082 498.064 349.298C498.496 348.509 498.712 347.58 498.712 346.511L499.36 346.648H494.11V344.773H500.757V346.648C500.757 348.085 500.45 349.335 499.837 350.398C499.229 351.46 498.388 352.284 497.314 352.869C496.246 353.449 495.019 353.739 493.632 353.739C492.087 353.739 490.729 353.375 489.558 352.648C488.394 351.92 487.485 350.886 486.831 349.545C486.183 348.205 485.86 346.614 485.86 344.773C485.86 343.392 486.044 342.151 486.414 341.048C486.789 339.94 487.317 338.997 487.999 338.219C488.681 337.44 489.487 336.844 490.419 336.429C491.351 336.014 492.377 335.807 493.496 335.807C494.416 335.807 495.274 335.946 496.07 336.224C496.871 336.497 497.584 336.886 498.209 337.392C498.84 337.892 499.365 338.491 499.786 339.19C500.206 339.884 500.496 340.653 500.655 341.5H498.473ZM507.105 351.114L506.968 352.034C506.872 352.682 506.724 353.375 506.525 354.114C506.332 354.852 506.13 355.548 505.92 356.202C505.71 356.855 505.536 357.375 505.4 357.761H503.866C503.94 357.398 504.036 356.918 504.156 356.321C504.275 355.724 504.394 355.057 504.514 354.318C504.639 353.585 504.741 352.835 504.82 352.068L504.923 351.114H507.105ZM524.536 336.045H526.649V348.523C526.649 349.636 526.445 350.582 526.036 351.361C525.627 352.139 525.05 352.73 524.306 353.134C523.561 353.537 522.683 353.739 521.672 353.739C520.718 353.739 519.868 353.565 519.124 353.219C518.379 352.866 517.794 352.366 517.368 351.719C516.942 351.071 516.729 350.301 516.729 349.409H518.808C518.808 349.903 518.931 350.335 519.175 350.705C519.425 351.068 519.766 351.352 520.198 351.557C520.629 351.761 521.121 351.864 521.672 351.864C522.28 351.864 522.797 351.736 523.223 351.48C523.649 351.224 523.973 350.849 524.195 350.355C524.422 349.855 524.536 349.244 524.536 348.523V336.045ZM530.885 353.5V336.045H536.783C538.152 336.045 539.271 336.293 540.141 336.787C541.016 337.276 541.664 337.938 542.084 338.773C542.504 339.608 542.715 340.54 542.715 341.568C542.715 342.597 542.504 343.531 542.084 344.372C541.669 345.213 541.027 345.884 540.158 346.384C539.289 346.878 538.175 347.125 536.817 347.125H532.59V345.25H536.749C537.686 345.25 538.439 345.088 539.007 344.764C539.575 344.44 539.987 344.003 540.243 343.452C540.504 342.895 540.635 342.267 540.635 341.568C540.635 340.869 540.504 340.244 540.243 339.693C539.987 339.142 539.573 338.71 538.999 338.398C538.425 338.08 537.664 337.92 536.715 337.92H532.999V353.5H530.885ZM546.119 353.5V336.045H556.654V337.92H548.233V343.818H556.108V345.693H548.233V351.625H556.79V353.5H546.119ZM572.395 341.5C572.208 340.926 571.96 340.412 571.654 339.957C571.352 339.497 570.992 339.105 570.571 338.781C570.156 338.457 569.685 338.21 569.156 338.04C568.628 337.869 568.048 337.784 567.418 337.784C566.384 337.784 565.443 338.051 564.597 338.585C563.75 339.119 563.077 339.906 562.577 340.946C562.077 341.986 561.827 343.261 561.827 344.773C561.827 346.284 562.08 347.56 562.585 348.599C563.091 349.639 563.776 350.426 564.639 350.96C565.503 351.494 566.475 351.761 567.554 351.761C568.554 351.761 569.435 351.548 570.196 351.122C570.963 350.69 571.56 350.082 571.986 349.298C572.418 348.509 572.634 347.58 572.634 346.511L573.281 346.648H568.031V344.773H574.679V346.648C574.679 348.085 574.372 349.335 573.759 350.398C573.151 351.46 572.31 352.284 571.236 352.869C570.168 353.449 568.941 353.739 567.554 353.739C566.009 353.739 564.651 353.375 563.48 352.648C562.316 351.92 561.406 350.886 560.753 349.545C560.105 348.205 559.781 346.614 559.781 344.773C559.781 343.392 559.966 342.151 560.335 341.048C560.71 339.94 561.239 338.997 561.921 338.219C562.602 337.44 563.409 336.844 564.341 336.429C565.273 336.014 566.298 335.807 567.418 335.807C568.338 335.807 569.196 335.946 569.992 336.224C570.793 336.497 571.506 336.886 572.131 337.392C572.762 337.892 573.287 338.491 573.708 339.19C574.128 339.884 574.418 340.653 574.577 341.5H572.395ZM589.72 353.739C588.572 353.739 587.583 353.528 586.754 353.108C585.924 352.687 585.285 352.111 584.836 351.378C584.387 350.645 584.163 349.807 584.163 348.864C584.163 348.136 584.316 347.491 584.623 346.929C584.936 346.361 585.365 345.835 585.91 345.352C586.461 344.864 587.095 344.375 587.811 343.886L590.333 342.011C590.828 341.687 591.222 341.341 591.518 340.972C591.819 340.602 591.97 340.119 591.97 339.523C591.97 339.08 591.774 338.651 591.382 338.236C590.995 337.821 590.487 337.614 589.856 337.614C589.413 337.614 589.021 337.727 588.68 337.955C588.345 338.176 588.08 338.46 587.887 338.807C587.7 339.148 587.606 339.5 587.606 339.864C587.606 340.273 587.717 340.688 587.938 341.108C588.166 341.523 588.453 341.949 588.799 342.386C589.151 342.818 589.515 343.261 589.89 343.716L597.901 353.5H595.481L588.867 345.523C588.254 344.784 587.697 344.114 587.197 343.511C586.697 342.909 586.299 342.315 586.004 341.73C585.708 341.145 585.561 340.511 585.561 339.83C585.561 339.045 585.734 338.358 586.08 337.767C586.433 337.17 586.924 336.707 587.555 336.378C588.191 336.043 588.936 335.875 589.788 335.875C590.663 335.875 591.416 336.045 592.046 336.386C592.677 336.722 593.163 337.168 593.504 337.724C593.845 338.276 594.015 338.875 594.015 339.523C594.015 340.358 593.808 341.082 593.393 341.696C592.978 342.31 592.413 342.881 591.697 343.409L588.22 346C587.436 346.58 586.904 347.142 586.626 347.688C586.347 348.233 586.208 348.625 586.208 348.864C586.208 349.409 586.35 349.918 586.634 350.389C586.919 350.861 587.319 351.241 587.836 351.531C588.353 351.821 588.958 351.966 589.651 351.966C590.311 351.966 590.953 351.827 591.578 351.548C592.203 351.264 592.768 350.855 593.274 350.321C593.785 349.787 594.188 349.145 594.484 348.395C594.785 347.645 594.936 346.801 594.936 345.864H596.879C596.879 347.023 596.745 347.969 596.478 348.702C596.211 349.435 595.91 350.009 595.575 350.423C595.24 350.838 594.97 351.148 594.765 351.352C594.697 351.437 594.634 351.523 594.578 351.608C594.521 351.693 594.458 351.778 594.39 351.864C593.828 352.494 593.117 352.966 592.259 353.278C591.401 353.585 590.555 353.739 589.72 353.739ZM619.083 341.5C618.895 340.926 618.648 340.412 618.341 339.957C618.04 339.497 617.679 339.105 617.259 338.781C616.844 338.457 616.372 338.21 615.844 338.04C615.316 337.869 614.736 337.784 614.105 337.784C613.071 337.784 612.131 338.051 611.284 338.585C610.438 339.119 609.764 339.906 609.264 340.946C608.764 341.986 608.514 343.261 608.514 344.773C608.514 346.284 608.767 347.56 609.273 348.599C609.779 349.639 610.463 350.426 611.327 350.96C612.191 351.494 613.162 351.761 614.242 351.761C615.242 351.761 616.122 351.548 616.884 351.122C617.651 350.69 618.247 350.082 618.673 349.298C619.105 348.509 619.321 347.58 619.321 346.511L619.969 346.648H614.719V344.773H621.367V346.648C621.367 348.085 621.06 349.335 620.446 350.398C619.838 351.46 618.997 352.284 617.923 352.869C616.855 353.449 615.628 353.739 614.242 353.739C612.696 353.739 611.338 353.375 610.168 352.648C609.003 351.92 608.094 350.886 607.441 349.545C606.793 348.205 606.469 346.614 606.469 344.773C606.469 343.392 606.654 342.151 607.023 341.048C607.398 339.94 607.926 338.997 608.608 338.219C609.29 337.44 610.097 336.844 611.029 336.429C611.96 336.014 612.986 335.807 614.105 335.807C615.026 335.807 615.884 335.946 616.679 336.224C617.48 336.497 618.193 336.886 618.818 337.392C619.449 337.892 619.975 338.491 620.395 339.19C620.816 339.884 621.105 340.653 621.264 341.5H619.083ZM627.1 336.045V353.5H624.987V336.045H627.1ZM631.338 353.5V336.045H641.804V337.92H633.452V343.818H641.02V345.693H633.452V353.5H631.338ZM657.595 340.409V342.114H650.811V340.409H657.595ZM652.788 337.273H654.799V349.75C654.799 350.318 654.882 350.744 655.046 351.028C655.217 351.307 655.433 351.494 655.694 351.591C655.961 351.682 656.242 351.727 656.538 351.727C656.759 351.727 656.941 351.716 657.083 351.693C657.225 351.665 657.339 351.642 657.424 351.625L657.833 353.432C657.697 353.483 657.507 353.534 657.262 353.585C657.018 353.642 656.708 353.67 656.333 353.67C655.765 353.67 655.208 353.548 654.663 353.304C654.123 353.06 653.674 352.688 653.316 352.188C652.964 351.688 652.788 351.057 652.788 350.295V337.273ZM665.798 353.773C664.616 353.773 663.579 353.491 662.687 352.929C661.801 352.366 661.107 351.58 660.607 350.568C660.113 349.557 659.866 348.375 659.866 347.023C659.866 345.659 660.113 344.469 660.607 343.452C661.107 342.435 661.801 341.645 662.687 341.082C663.579 340.52 664.616 340.239 665.798 340.239C666.98 340.239 668.014 340.52 668.9 341.082C669.792 341.645 670.485 342.435 670.98 343.452C671.48 344.469 671.73 345.659 671.73 347.023C671.73 348.375 671.48 349.557 670.98 350.568C670.485 351.58 669.792 352.366 668.9 352.929C668.014 353.491 666.98 353.773 665.798 353.773ZM665.798 351.966C666.695 351.966 667.434 351.736 668.014 351.276C668.593 350.815 669.022 350.21 669.301 349.46C669.579 348.71 669.718 347.898 669.718 347.023C669.718 346.148 669.579 345.332 669.301 344.577C669.022 343.821 668.593 343.21 668.014 342.744C667.434 342.278 666.695 342.045 665.798 342.045C664.9 342.045 664.161 342.278 663.582 342.744C663.002 343.21 662.573 343.821 662.295 344.577C662.017 345.332 661.877 346.148 661.877 347.023C661.877 347.898 662.017 348.71 662.295 349.46C662.573 350.21 663.002 350.815 663.582 351.276C664.161 351.736 664.9 351.966 665.798 351.966ZM691.368 340.409C691.266 339.545 690.851 338.875 690.124 338.398C689.396 337.92 688.504 337.682 687.448 337.682C686.675 337.682 685.999 337.807 685.419 338.057C684.845 338.307 684.396 338.651 684.073 339.088C683.754 339.526 683.595 340.023 683.595 340.58C683.595 341.045 683.706 341.446 683.928 341.781C684.155 342.111 684.445 342.386 684.797 342.608C685.149 342.824 685.519 343.003 685.905 343.145C686.291 343.281 686.646 343.392 686.97 343.477L688.743 343.955C689.198 344.074 689.703 344.239 690.26 344.449C690.823 344.659 691.36 344.946 691.871 345.31C692.388 345.668 692.814 346.128 693.149 346.69C693.485 347.253 693.652 347.943 693.652 348.761C693.652 349.705 693.405 350.557 692.911 351.318C692.422 352.08 691.706 352.685 690.763 353.134C689.825 353.582 688.686 353.807 687.345 353.807C686.095 353.807 685.013 353.605 684.098 353.202C683.189 352.798 682.473 352.236 681.95 351.514C681.433 350.793 681.141 349.955 681.073 349H683.254C683.311 349.659 683.533 350.205 683.919 350.636C684.311 351.062 684.806 351.381 685.402 351.591C686.004 351.795 686.652 351.898 687.345 351.898C688.152 351.898 688.877 351.767 689.519 351.506C690.161 351.239 690.669 350.869 691.044 350.398C691.419 349.92 691.607 349.364 691.607 348.727C691.607 348.148 691.445 347.676 691.121 347.312C690.797 346.949 690.371 346.653 689.843 346.426C689.314 346.199 688.743 346 688.129 345.83L685.982 345.216C684.618 344.824 683.539 344.264 682.743 343.537C681.948 342.81 681.55 341.858 681.55 340.682C681.55 339.705 681.814 338.852 682.343 338.125C682.877 337.392 683.593 336.824 684.49 336.42C685.394 336.011 686.402 335.807 687.516 335.807C688.641 335.807 689.641 336.009 690.516 336.412C691.391 336.81 692.084 337.355 692.595 338.048C693.112 338.741 693.385 339.528 693.414 340.409H691.368ZM697.843 336.045L703.025 350.739H703.23L708.411 336.045H710.627L704.218 353.5H702.036L695.627 336.045H697.843ZM724.458 341.5C724.27 340.926 724.023 340.412 723.716 339.957C723.415 339.497 723.054 339.105 722.634 338.781C722.219 338.457 721.747 338.21 721.219 338.04C720.691 337.869 720.111 337.784 719.48 337.784C718.446 337.784 717.506 338.051 716.659 338.585C715.813 339.119 715.139 339.906 714.639 340.946C714.139 341.986 713.889 343.261 713.889 344.773C713.889 346.284 714.142 347.56 714.648 348.599C715.154 349.639 715.838 350.426 716.702 350.96C717.566 351.494 718.537 351.761 719.617 351.761C720.617 351.761 721.497 351.548 722.259 351.122C723.026 350.69 723.622 350.082 724.048 349.298C724.48 348.509 724.696 347.58 724.696 346.511L725.344 346.648H720.094V344.773H726.742V346.648C726.742 348.085 726.435 349.335 725.821 350.398C725.213 351.46 724.372 352.284 723.298 352.869C722.23 353.449 721.003 353.739 719.617 353.739C718.071 353.739 716.713 353.375 715.543 352.648C714.378 351.92 713.469 350.886 712.816 349.545C712.168 348.205 711.844 346.614 711.844 344.773C711.844 343.392 712.029 342.151 712.398 341.048C712.773 339.94 713.301 338.997 713.983 338.219C714.665 337.44 715.472 336.844 716.404 336.429C717.335 336.014 718.361 335.807 719.48 335.807C720.401 335.807 721.259 335.946 722.054 336.224C722.855 336.497 723.568 336.886 724.193 337.392C724.824 337.892 725.35 338.491 725.77 339.19C726.191 339.884 726.48 340.653 726.639 341.5H724.458ZM745.089 348.148V340.409H747.1V353.5H745.089V351.284H744.953C744.646 351.949 744.169 352.514 743.521 352.98C742.873 353.44 742.055 353.67 741.066 353.67C740.248 353.67 739.521 353.491 738.884 353.134C738.248 352.77 737.748 352.224 737.384 351.497C737.021 350.764 736.839 349.841 736.839 348.727V340.409H738.85V348.591C738.85 349.545 739.117 350.307 739.651 350.875C740.191 351.443 740.879 351.727 741.714 351.727C742.214 351.727 742.722 351.599 743.24 351.344C743.762 351.088 744.2 350.696 744.552 350.168C744.91 349.639 745.089 348.966 745.089 348.148ZM760.057 343.341L758.25 343.852C758.137 343.551 757.969 343.259 757.747 342.974C757.531 342.685 757.236 342.446 756.861 342.259C756.486 342.071 756.006 341.977 755.421 341.977C754.619 341.977 753.952 342.162 753.418 342.531C752.889 342.895 752.625 343.358 752.625 343.92C752.625 344.42 752.807 344.815 753.171 345.105C753.534 345.395 754.102 345.636 754.875 345.83L756.818 346.307C757.989 346.591 758.861 347.026 759.435 347.611C760.009 348.19 760.296 348.937 760.296 349.852C760.296 350.602 760.08 351.273 759.648 351.864C759.222 352.455 758.625 352.92 757.858 353.261C757.091 353.602 756.199 353.773 755.182 353.773C753.847 353.773 752.742 353.483 751.867 352.903C750.992 352.324 750.438 351.477 750.205 350.364L752.114 349.886C752.296 350.591 752.639 351.119 753.145 351.472C753.656 351.824 754.324 352 755.148 352C756.085 352 756.83 351.801 757.381 351.403C757.938 351 758.216 350.517 758.216 349.955C758.216 349.5 758.057 349.119 757.739 348.812C757.421 348.5 756.932 348.267 756.273 348.114L754.091 347.602C752.892 347.318 752.012 346.878 751.449 346.281C750.892 345.679 750.614 344.926 750.614 344.023C750.614 343.284 750.821 342.631 751.236 342.062C751.656 341.494 752.227 341.048 752.949 340.724C753.676 340.401 754.5 340.239 755.421 340.239C756.716 340.239 757.733 340.523 758.472 341.091C759.216 341.659 759.744 342.409 760.057 343.341ZM763.323 353.5V340.409H765.335V353.5H763.323ZM764.346 338.227C763.954 338.227 763.616 338.094 763.332 337.827C763.053 337.56 762.914 337.239 762.914 336.864C762.914 336.489 763.053 336.168 763.332 335.901C763.616 335.634 763.954 335.5 764.346 335.5C764.738 335.5 765.073 335.634 765.352 335.901C765.636 336.168 765.778 336.489 765.778 336.864C765.778 337.239 765.636 337.56 765.352 337.827C765.073 338.094 764.738 338.227 764.346 338.227ZM771.03 345.625V353.5H769.019V340.409H770.962V342.455H771.132C771.439 341.79 771.905 341.256 772.53 340.852C773.155 340.443 773.962 340.239 774.95 340.239C775.837 340.239 776.612 340.42 777.277 340.784C777.942 341.142 778.459 341.688 778.828 342.42C779.198 343.148 779.382 344.068 779.382 345.182V353.5H777.371V345.318C777.371 344.29 777.104 343.489 776.57 342.915C776.036 342.335 775.303 342.045 774.371 342.045C773.729 342.045 773.155 342.185 772.649 342.463C772.149 342.741 771.754 343.148 771.465 343.682C771.175 344.216 771.03 344.864 771.03 345.625ZM788.342 358.682C787.37 358.682 786.535 358.557 785.836 358.307C785.137 358.062 784.555 357.739 784.089 357.335C783.629 356.938 783.262 356.511 782.99 356.057L784.592 354.932C784.774 355.17 785.004 355.443 785.282 355.75C785.561 356.062 785.941 356.332 786.424 356.56C786.913 356.793 787.552 356.909 788.342 356.909C789.399 356.909 790.271 356.653 790.958 356.142C791.646 355.631 791.99 354.83 791.99 353.739V351.08H791.819C791.671 351.318 791.461 351.614 791.188 351.966C790.921 352.312 790.535 352.622 790.029 352.895C789.529 353.162 788.853 353.295 788.001 353.295C786.944 353.295 785.995 353.045 785.154 352.545C784.319 352.045 783.657 351.318 783.169 350.364C782.686 349.409 782.444 348.25 782.444 346.886C782.444 345.545 782.68 344.378 783.151 343.384C783.623 342.384 784.279 341.611 785.12 341.065C785.961 340.514 786.933 340.239 788.035 340.239C788.887 340.239 789.563 340.381 790.063 340.665C790.569 340.943 790.955 341.261 791.222 341.619C791.495 341.972 791.705 342.261 791.853 342.489H792.058V340.409H794.001V353.875C794.001 355 793.745 355.915 793.234 356.619C792.728 357.33 792.046 357.849 791.188 358.179C790.336 358.514 789.387 358.682 788.342 358.682ZM788.274 351.489C789.08 351.489 789.762 351.304 790.319 350.935C790.876 350.565 791.299 350.034 791.589 349.341C791.879 348.648 792.024 347.818 792.024 346.852C792.024 345.909 791.882 345.077 791.597 344.355C791.313 343.634 790.893 343.068 790.336 342.659C789.779 342.25 789.092 342.045 788.274 342.045C787.421 342.045 786.711 342.261 786.143 342.693C785.58 343.125 785.157 343.705 784.873 344.432C784.595 345.159 784.455 345.966 784.455 346.852C784.455 347.761 784.597 348.565 784.882 349.264C785.171 349.957 785.597 350.503 786.16 350.901C786.728 351.293 787.433 351.489 788.274 351.489ZM808.285 353.807C807.455 353.807 806.703 353.651 806.026 353.338C805.35 353.02 804.813 352.562 804.416 351.966C804.018 351.364 803.819 350.636 803.819 349.784C803.819 349.034 803.967 348.426 804.262 347.96C804.558 347.489 804.953 347.119 805.447 346.852C805.941 346.585 806.487 346.386 807.083 346.256C807.686 346.119 808.291 346.011 808.899 345.932C809.694 345.83 810.339 345.753 810.833 345.702C811.333 345.645 811.697 345.551 811.924 345.42C812.157 345.29 812.274 345.062 812.274 344.739V344.67C812.274 343.83 812.044 343.176 811.583 342.71C811.129 342.244 810.438 342.011 809.512 342.011C808.552 342.011 807.799 342.222 807.254 342.642C806.708 343.062 806.325 343.511 806.103 343.989L804.194 343.307C804.535 342.511 804.99 341.892 805.558 341.449C806.132 341 806.757 340.687 807.433 340.511C808.115 340.33 808.785 340.239 809.444 340.239C809.865 340.239 810.347 340.29 810.893 340.392C811.444 340.489 811.975 340.69 812.487 340.997C813.004 341.304 813.433 341.767 813.774 342.386C814.115 343.006 814.285 343.835 814.285 344.875V353.5H812.274V351.727H812.171C812.035 352.011 811.808 352.315 811.49 352.639C811.171 352.963 810.748 353.239 810.22 353.466C809.691 353.693 809.046 353.807 808.285 353.807ZM808.592 352C809.387 352 810.058 351.844 810.603 351.531C811.154 351.219 811.569 350.815 811.847 350.321C812.132 349.827 812.274 349.307 812.274 348.761V346.92C812.188 347.023 812.001 347.116 811.711 347.202C811.427 347.281 811.097 347.352 810.722 347.415C810.353 347.472 809.992 347.523 809.64 347.568C809.294 347.608 809.012 347.642 808.796 347.67C808.274 347.739 807.785 347.849 807.33 348.003C806.882 348.151 806.518 348.375 806.24 348.676C805.967 348.972 805.83 349.375 805.83 349.886C805.83 350.585 806.089 351.114 806.606 351.472C807.129 351.824 807.791 352 808.592 352ZM822.899 353.773C821.808 353.773 820.845 353.497 820.01 352.946C819.175 352.389 818.521 351.605 818.05 350.594C817.578 349.577 817.343 348.375 817.343 346.989C817.343 345.614 817.578 344.42 818.05 343.409C818.521 342.398 819.178 341.616 820.019 341.065C820.86 340.514 821.831 340.239 822.933 340.239C823.786 340.239 824.459 340.381 824.953 340.665C825.453 340.943 825.834 341.261 826.095 341.619C826.362 341.972 826.57 342.261 826.718 342.489H826.888V336.045H828.899V353.5H826.956V351.489H826.718C826.57 351.727 826.36 352.028 826.087 352.392C825.814 352.75 825.425 353.071 824.919 353.355C824.414 353.634 823.74 353.773 822.899 353.773ZM823.172 351.966C823.979 351.966 824.661 351.756 825.218 351.335C825.774 350.909 826.198 350.321 826.487 349.571C826.777 348.815 826.922 347.943 826.922 346.955C826.922 345.977 826.78 345.122 826.496 344.389C826.212 343.651 825.791 343.077 825.235 342.668C824.678 342.253 823.99 342.045 823.172 342.045C822.32 342.045 821.61 342.264 821.041 342.702C820.479 343.134 820.056 343.722 819.771 344.466C819.493 345.205 819.354 346.034 819.354 346.955C819.354 347.886 819.496 348.733 819.78 349.494C820.07 350.25 820.496 350.852 821.058 351.301C821.627 351.744 822.331 351.966 823.172 351.966ZM843.567 340.409L838.726 353.5H836.681L831.84 340.409H834.021L837.635 350.841H837.771L841.385 340.409H843.567ZM849.676 353.807C848.846 353.807 848.093 353.651 847.417 353.338C846.741 353.02 846.204 352.562 845.806 351.966C845.409 351.364 845.21 350.636 845.21 349.784C845.21 349.034 845.357 348.426 845.653 347.96C845.948 347.489 846.343 347.119 846.838 346.852C847.332 346.585 847.877 346.386 848.474 346.256C849.076 346.119 849.681 346.011 850.289 345.932C851.085 345.83 851.73 345.753 852.224 345.702C852.724 345.645 853.088 345.551 853.315 345.42C853.548 345.29 853.664 345.062 853.664 344.739V344.67C853.664 343.83 853.434 343.176 852.974 342.71C852.519 342.244 851.829 342.011 850.903 342.011C849.943 342.011 849.19 342.222 848.644 342.642C848.099 343.062 847.715 343.511 847.494 343.989L845.585 343.307C845.926 342.511 846.38 341.892 846.948 341.449C847.522 341 848.147 340.687 848.823 340.511C849.505 340.33 850.176 340.239 850.835 340.239C851.255 340.239 851.738 340.29 852.284 340.392C852.835 340.489 853.366 340.69 853.877 340.997C854.394 341.304 854.823 341.767 855.164 342.386C855.505 343.006 855.676 343.835 855.676 344.875V353.5H853.664V351.727H853.562C853.426 352.011 853.198 352.315 852.88 352.639C852.562 352.963 852.139 353.239 851.61 353.466C851.082 353.693 850.437 353.807 849.676 353.807ZM849.982 352C850.778 352 851.448 351.844 851.994 351.531C852.545 351.219 852.96 350.815 853.238 350.321C853.522 349.827 853.664 349.307 853.664 348.761V346.92C853.579 347.023 853.392 347.116 853.102 347.202C852.818 347.281 852.488 347.352 852.113 347.415C851.744 347.472 851.383 347.523 851.031 347.568C850.684 347.608 850.403 347.642 850.187 347.67C849.664 347.739 849.176 347.849 848.721 348.003C848.272 348.151 847.909 348.375 847.63 348.676C847.357 348.972 847.221 349.375 847.221 349.886C847.221 350.585 847.48 351.114 847.997 351.472C848.519 351.824 849.181 352 849.982 352ZM861.358 345.625V353.5H859.347V340.409H861.29V342.455H861.46C861.767 341.79 862.233 341.256 862.858 340.852C863.483 340.443 864.29 340.239 865.279 340.239C866.165 340.239 866.941 340.42 867.605 340.784C868.27 341.142 868.787 341.688 869.156 342.42C869.526 343.148 869.71 344.068 869.71 345.182V353.5H867.699V345.318C867.699 344.29 867.432 343.489 866.898 342.915C866.364 342.335 865.631 342.045 864.699 342.045C864.057 342.045 863.483 342.185 862.977 342.463C862.477 342.741 862.083 343.148 861.793 343.682C861.503 344.216 861.358 344.864 861.358 345.625ZM878.704 353.773C877.477 353.773 876.42 353.483 875.534 352.903C874.647 352.324 873.965 351.526 873.488 350.509C873.011 349.491 872.772 348.33 872.772 347.023C872.772 345.693 873.017 344.52 873.505 343.503C873.999 342.48 874.687 341.682 875.568 341.108C876.454 340.528 877.488 340.239 878.67 340.239C879.59 340.239 880.42 340.409 881.159 340.75C881.897 341.091 882.502 341.568 882.974 342.182C883.445 342.795 883.738 343.511 883.852 344.33H881.84C881.687 343.733 881.346 343.205 880.818 342.744C880.295 342.278 879.59 342.045 878.704 342.045C877.92 342.045 877.232 342.25 876.642 342.659C876.056 343.062 875.599 343.634 875.269 344.372C874.945 345.105 874.784 345.966 874.784 346.955C874.784 347.966 874.943 348.847 875.261 349.597C875.585 350.347 876.039 350.929 876.624 351.344C877.215 351.759 877.909 351.966 878.704 351.966C879.227 351.966 879.701 351.875 880.127 351.693C880.553 351.511 880.914 351.25 881.21 350.909C881.505 350.568 881.715 350.159 881.84 349.682H883.852C883.738 350.455 883.457 351.151 883.008 351.77C882.565 352.384 881.977 352.872 881.244 353.236C880.517 353.594 879.67 353.773 878.704 353.773ZM892.281 353.773C891.019 353.773 889.931 353.494 889.017 352.938C888.107 352.375 887.406 351.591 886.911 350.585C886.423 349.574 886.178 348.398 886.178 347.057C886.178 345.716 886.423 344.534 886.911 343.511C887.406 342.483 888.093 341.682 888.974 341.108C889.86 340.528 890.894 340.239 892.076 340.239C892.758 340.239 893.431 340.352 894.096 340.58C894.761 340.807 895.366 341.176 895.911 341.688C896.457 342.193 896.892 342.864 897.215 343.699C897.539 344.534 897.701 345.562 897.701 346.784V347.636H887.61V345.898H895.656C895.656 345.159 895.508 344.5 895.213 343.92C894.923 343.341 894.508 342.884 893.968 342.548C893.434 342.213 892.803 342.045 892.076 342.045C891.275 342.045 890.582 342.244 889.997 342.642C889.417 343.034 888.971 343.545 888.659 344.176C888.346 344.807 888.19 345.483 888.19 346.205V347.364C888.19 348.352 888.36 349.19 888.701 349.878C889.048 350.56 889.528 351.08 890.142 351.438C890.755 351.79 891.468 351.966 892.281 351.966C892.809 351.966 893.286 351.892 893.713 351.744C894.144 351.591 894.517 351.364 894.829 351.062C895.142 350.756 895.383 350.375 895.553 349.92L897.497 350.466C897.292 351.125 896.948 351.705 896.465 352.205C895.982 352.699 895.386 353.085 894.676 353.364C893.965 353.636 893.167 353.773 892.281 353.773ZM905.704 353.773C904.613 353.773 903.65 353.497 902.815 352.946C901.98 352.389 901.326 351.605 900.855 350.594C900.383 349.577 900.147 348.375 900.147 346.989C900.147 345.614 900.383 344.42 900.855 343.409C901.326 342.398 901.982 341.616 902.823 341.065C903.664 340.514 904.636 340.239 905.738 340.239C906.59 340.239 907.264 340.381 907.758 340.665C908.258 340.943 908.639 341.261 908.9 341.619C909.167 341.972 909.374 342.261 909.522 342.489H909.693V336.045H911.704V353.5H909.761V351.489H909.522C909.374 351.727 909.164 352.028 908.892 352.392C908.619 352.75 908.23 353.071 907.724 353.355C907.218 353.634 906.545 353.773 905.704 353.773ZM905.977 351.966C906.784 351.966 907.465 351.756 908.022 351.335C908.579 350.909 909.002 350.321 909.292 349.571C909.582 348.815 909.727 347.943 909.727 346.955C909.727 345.977 909.585 345.122 909.301 344.389C909.017 343.651 908.596 343.077 908.039 342.668C907.482 342.253 906.795 342.045 905.977 342.045C905.124 342.045 904.414 342.264 903.846 342.702C903.284 343.134 902.86 343.722 902.576 344.466C902.298 345.205 902.159 346.034 902.159 346.955C902.159 347.886 902.301 348.733 902.585 349.494C902.874 350.25 903.301 350.852 903.863 351.301C904.431 351.744 905.136 351.966 905.977 351.966ZM926.269 353.807C925.44 353.807 924.687 353.651 924.011 353.338C923.335 353.02 922.798 352.562 922.4 351.966C922.002 351.364 921.803 350.636 921.803 349.784C921.803 349.034 921.951 348.426 922.247 347.96C922.542 347.489 922.937 347.119 923.431 346.852C923.926 346.585 924.471 346.386 925.068 346.256C925.67 346.119 926.275 346.011 926.883 345.932C927.678 345.83 928.323 345.753 928.818 345.702C929.318 345.645 929.681 345.551 929.909 345.42C930.142 345.29 930.258 345.062 930.258 344.739V344.67C930.258 343.83 930.028 343.176 929.568 342.71C929.113 342.244 928.423 342.011 927.497 342.011C926.536 342.011 925.784 342.222 925.238 342.642C924.693 343.062 924.309 343.511 924.088 343.989L922.178 343.307C922.519 342.511 922.974 341.892 923.542 341.449C924.116 341 924.741 340.687 925.417 340.511C926.099 340.33 926.769 340.239 927.428 340.239C927.849 340.239 928.332 340.29 928.877 340.392C929.428 340.489 929.96 340.69 930.471 340.997C930.988 341.304 931.417 341.767 931.758 342.386C932.099 343.006 932.269 343.835 932.269 344.875V353.5H930.258V351.727H930.156C930.019 352.011 929.792 352.315 929.474 352.639C929.156 352.963 928.732 353.239 928.204 353.466C927.676 353.693 927.031 353.807 926.269 353.807ZM926.576 352C927.372 352 928.042 351.844 928.588 351.531C929.139 351.219 929.553 350.815 929.832 350.321C930.116 349.827 930.258 349.307 930.258 348.761V346.92C930.173 347.023 929.985 347.116 929.695 347.202C929.411 347.281 929.082 347.352 928.707 347.415C928.338 347.472 927.977 347.523 927.624 347.568C927.278 347.608 926.997 347.642 926.781 347.67C926.258 347.739 925.769 347.849 925.315 348.003C924.866 348.151 924.502 348.375 924.224 348.676C923.951 348.972 923.815 349.375 923.815 349.886C923.815 350.585 924.073 351.114 924.59 351.472C925.113 351.824 925.775 352 926.576 352ZM937.952 336.045V353.5H935.941V336.045H937.952ZM946.92 358.682C945.948 358.682 945.113 358.557 944.414 358.307C943.715 358.062 943.133 357.739 942.667 357.335C942.207 356.938 941.84 356.511 941.568 356.057L943.17 354.932C943.352 355.17 943.582 355.443 943.86 355.75C944.139 356.062 944.519 356.332 945.002 356.56C945.491 356.793 946.13 356.909 946.92 356.909C947.977 356.909 948.849 356.653 949.536 356.142C950.224 355.631 950.568 354.83 950.568 353.739V351.08H950.397C950.249 351.318 950.039 351.614 949.767 351.966C949.499 352.312 949.113 352.622 948.607 352.895C948.107 353.162 947.431 353.295 946.579 353.295C945.522 353.295 944.573 353.045 943.732 352.545C942.897 352.045 942.235 351.318 941.747 350.364C941.264 349.409 941.022 348.25 941.022 346.886C941.022 345.545 941.258 344.378 941.73 343.384C942.201 342.384 942.857 341.611 943.698 341.065C944.539 340.514 945.511 340.239 946.613 340.239C947.465 340.239 948.142 340.381 948.642 340.665C949.147 340.943 949.534 341.261 949.801 341.619C950.073 341.972 950.284 342.261 950.431 342.489H950.636V340.409H952.579V353.875C952.579 355 952.323 355.915 951.812 356.619C951.306 357.33 950.624 357.849 949.767 358.179C948.914 358.514 947.965 358.682 946.92 358.682ZM946.852 351.489C947.659 351.489 948.34 351.304 948.897 350.935C949.454 350.565 949.877 350.034 950.167 349.341C950.457 348.648 950.602 347.818 950.602 346.852C950.602 345.909 950.46 345.077 950.176 344.355C949.892 343.634 949.471 343.068 948.914 342.659C948.357 342.25 947.67 342.045 946.852 342.045C945.999 342.045 945.289 342.261 944.721 342.693C944.159 343.125 943.735 343.705 943.451 344.432C943.173 345.159 943.034 345.966 943.034 346.852C943.034 347.761 943.176 348.565 943.46 349.264C943.749 349.957 944.176 350.503 944.738 350.901C945.306 351.293 946.011 351.489 946.852 351.489ZM961.579 353.773C960.397 353.773 959.36 353.491 958.468 352.929C957.582 352.366 956.889 351.58 956.389 350.568C955.894 349.557 955.647 348.375 955.647 347.023C955.647 345.659 955.894 344.469 956.389 343.452C956.889 342.435 957.582 341.645 958.468 341.082C959.36 340.52 960.397 340.239 961.579 340.239C962.761 340.239 963.795 340.52 964.681 341.082C965.573 341.645 966.267 342.435 966.761 343.452C967.261 344.469 967.511 345.659 967.511 347.023C967.511 348.375 967.261 349.557 966.761 350.568C966.267 351.58 965.573 352.366 964.681 352.929C963.795 353.491 962.761 353.773 961.579 353.773ZM961.579 351.966C962.477 351.966 963.215 351.736 963.795 351.276C964.374 350.815 964.803 350.21 965.082 349.46C965.36 348.71 965.499 347.898 965.499 347.023C965.499 346.148 965.36 345.332 965.082 344.577C964.803 343.821 964.374 343.21 963.795 342.744C963.215 342.278 962.477 342.045 961.579 342.045C960.681 342.045 959.943 342.278 959.363 342.744C958.784 343.21 958.355 343.821 958.076 344.577C957.798 345.332 957.659 346.148 957.659 347.023C957.659 347.898 957.798 348.71 958.076 349.46C958.355 350.21 958.784 350.815 959.363 351.276C959.943 351.736 960.681 351.966 961.579 351.966ZM970.581 353.5V340.409H972.524V342.386H972.661C972.899 341.739 973.331 341.213 973.956 340.81C974.581 340.406 975.286 340.205 976.07 340.205C976.218 340.205 976.402 340.207 976.624 340.213C976.845 340.219 977.013 340.227 977.127 340.239V342.284C977.058 342.267 976.902 342.241 976.658 342.207C976.419 342.168 976.166 342.148 975.899 342.148C975.263 342.148 974.695 342.281 974.195 342.548C973.7 342.81 973.308 343.173 973.019 343.639C972.735 344.099 972.593 344.625 972.593 345.216V353.5H970.581ZM979.511 353.5V340.409H981.522V353.5H979.511ZM980.534 338.227C980.142 338.227 979.803 338.094 979.519 337.827C979.241 337.56 979.102 337.239 979.102 336.864C979.102 336.489 979.241 336.168 979.519 335.901C979.803 335.634 980.142 335.5 980.534 335.5C980.926 335.5 981.261 335.634 981.539 335.901C981.823 336.168 981.965 336.489 981.965 336.864C981.965 337.239 981.823 337.56 981.539 337.827C981.261 338.094 980.926 338.227 980.534 338.227ZM990.899 340.409V342.114H984.115V340.409H990.899ZM986.093 337.273H988.104V349.75C988.104 350.318 988.186 350.744 988.351 351.028C988.521 351.307 988.737 351.494 988.999 351.591C989.266 351.682 989.547 351.727 989.843 351.727C990.064 351.727 990.246 351.716 990.388 351.693C990.53 351.665 990.644 351.642 990.729 351.625L991.138 353.432C991.002 353.483 990.811 353.534 990.567 353.585C990.323 353.642 990.013 353.67 989.638 353.67C989.07 353.67 988.513 353.548 987.968 353.304C987.428 353.06 986.979 352.688 986.621 352.188C986.269 351.688 986.093 351.057 986.093 350.295V337.273ZM996.218 345.625V353.5H994.206V336.045H996.218V342.455H996.388C996.695 341.778 997.155 341.241 997.769 340.844C998.388 340.44 999.212 340.239 1000.24 340.239C1001.13 340.239 1001.91 340.418 1002.58 340.776C1003.25 341.128 1003.77 341.67 1004.14 342.403C1004.52 343.131 1004.71 344.057 1004.71 345.182V353.5H1002.69V345.318C1002.69 344.278 1002.42 343.474 1001.89 342.906C1001.35 342.332 1000.61 342.045 999.661 342.045C999.002 342.045 998.411 342.185 997.888 342.463C997.371 342.741 996.962 343.148 996.661 343.682C996.365 344.216 996.218 344.864 996.218 345.625ZM1008.39 353.5V340.409H1010.33V342.455H1010.5C1010.77 341.756 1011.21 341.213 1011.82 340.827C1012.43 340.435 1013.16 340.239 1014.01 340.239C1014.87 340.239 1015.59 340.435 1016.17 340.827C1016.75 341.213 1017.2 341.756 1017.52 342.455H1017.66C1017.99 341.778 1018.5 341.241 1019.17 340.844C1019.84 340.44 1020.64 340.239 1021.58 340.239C1022.75 340.239 1023.71 340.605 1024.45 341.338C1025.2 342.065 1025.57 343.199 1025.57 344.739V353.5H1023.56V344.739C1023.56 343.773 1023.29 343.082 1022.76 342.668C1022.24 342.253 1021.61 342.045 1020.9 342.045C1019.98 342.045 1019.26 342.324 1018.76 342.881C1018.25 343.432 1018 344.131 1018 344.977V353.5H1015.95V344.534C1015.95 343.79 1015.71 343.19 1015.23 342.736C1014.75 342.276 1014.12 342.045 1013.36 342.045C1012.84 342.045 1012.35 342.185 1011.9 342.463C1011.45 342.741 1011.08 343.128 1010.81 343.622C1010.53 344.111 1010.4 344.676 1010.4 345.318V353.5H1008.39ZM1038.52 343.341L1036.71 343.852C1036.6 343.551 1036.43 343.259 1036.21 342.974C1035.99 342.685 1035.7 342.446 1035.32 342.259C1034.95 342.071 1034.47 341.977 1033.88 341.977C1033.08 341.977 1032.41 342.162 1031.88 342.531C1031.35 342.895 1031.09 343.358 1031.09 343.92C1031.09 344.42 1031.27 344.815 1031.63 345.105C1032 345.395 1032.56 345.636 1033.34 345.83L1035.28 346.307C1036.45 346.591 1037.32 347.026 1037.9 347.611C1038.47 348.19 1038.76 348.937 1038.76 349.852C1038.76 350.602 1038.54 351.273 1038.11 351.864C1037.68 352.455 1037.09 352.92 1036.32 353.261C1035.55 353.602 1034.66 353.773 1033.64 353.773C1032.31 353.773 1031.2 353.483 1030.33 352.903C1029.45 352.324 1028.9 351.477 1028.67 350.364L1030.57 349.886C1030.76 350.591 1031.1 351.119 1031.61 351.472C1032.12 351.824 1032.78 352 1033.61 352C1034.55 352 1035.29 351.801 1035.84 351.403C1036.4 351 1036.68 350.517 1036.68 349.955C1036.68 349.5 1036.52 349.119 1036.2 348.812C1035.88 348.5 1035.39 348.267 1034.73 348.114L1032.55 347.602C1031.35 347.318 1030.47 346.878 1029.91 346.281C1029.35 345.679 1029.07 344.926 1029.07 344.023C1029.07 343.284 1029.28 342.631 1029.7 342.062C1030.12 341.494 1030.69 341.048 1031.41 340.724C1032.14 340.401 1032.96 340.239 1033.88 340.239C1035.18 340.239 1036.19 340.523 1036.93 341.091C1037.68 341.659 1038.21 342.409 1038.52 343.341Z" fill="#718096"/>
<path d="M453.693 407.5H373.693C362.648 407.5 353.693 416.454 353.693 427.5C353.693 438.546 362.648 447.5 373.693 447.5H453.693C464.739 447.5 473.693 438.546 473.693 427.5C473.693 416.454 464.739 407.5 453.693 407.5Z" fill="#EDF2F7"/>
<path d="M385.232 421.864L387.834 430.386H387.931L390.533 421.864H393.681L389.754 433.5H386.01L382.084 421.864H385.232ZM394.553 424.148V421.864H404.388V424.148H400.86V433.5H398.087V424.148H394.553ZM404.855 433.5V424.773H407.554V426.364H407.645C407.804 425.788 408.064 425.36 408.423 425.08C408.783 424.795 409.202 424.653 409.679 424.653C409.808 424.653 409.941 424.663 410.077 424.682C410.213 424.697 410.34 424.722 410.458 424.756V427.17C410.325 427.125 410.151 427.089 409.935 427.062C409.723 427.036 409.533 427.023 409.367 427.023C409.037 427.023 408.74 427.097 408.475 427.244C408.213 427.388 408.007 427.591 407.855 427.852C407.708 428.11 407.634 428.413 407.634 428.761V433.5H404.855ZM413.722 433.648C413.165 433.648 412.671 433.555 412.239 433.369C411.811 433.18 411.472 432.896 411.222 432.517C410.976 432.134 410.852 431.655 410.852 431.08C410.852 430.595 410.938 430.186 411.108 429.852C411.279 429.519 411.513 429.248 411.813 429.04C412.112 428.831 412.457 428.674 412.847 428.568C413.237 428.458 413.654 428.384 414.097 428.347C414.593 428.301 414.993 428.254 415.296 428.205C415.599 428.152 415.818 428.078 415.955 427.983C416.095 427.884 416.165 427.746 416.165 427.568V427.54C416.165 427.248 416.065 427.023 415.864 426.864C415.663 426.705 415.392 426.625 415.051 426.625C414.684 426.625 414.388 426.705 414.165 426.864C413.941 427.023 413.799 427.242 413.739 427.523L411.176 427.432C411.252 426.902 411.447 426.428 411.762 426.011C412.08 425.591 412.515 425.261 413.068 425.023C413.625 424.78 414.294 424.659 415.074 424.659C415.631 424.659 416.144 424.725 416.614 424.858C417.084 424.987 417.493 425.176 417.841 425.426C418.19 425.672 418.459 425.975 418.648 426.335C418.841 426.695 418.938 427.106 418.938 427.568V433.5H416.324V432.284H416.256C416.101 432.58 415.902 432.83 415.659 433.034C415.421 433.239 415.138 433.392 414.813 433.494C414.491 433.597 414.127 433.648 413.722 433.648ZM414.58 431.83C414.879 431.83 415.148 431.769 415.387 431.648C415.629 431.527 415.822 431.36 415.966 431.148C416.11 430.932 416.182 430.682 416.182 430.398V429.568C416.102 429.61 416.006 429.648 415.892 429.682C415.782 429.716 415.661 429.748 415.529 429.778C415.396 429.809 415.26 429.835 415.119 429.858C414.979 429.881 414.845 429.902 414.716 429.92C414.455 429.962 414.231 430.027 414.046 430.114C413.864 430.201 413.724 430.314 413.625 430.455C413.53 430.591 413.483 430.754 413.483 430.943C413.483 431.231 413.585 431.451 413.79 431.602C413.998 431.754 414.262 431.83 414.58 431.83ZM424.71 433.665C423.79 433.665 423 433.475 422.341 433.097C421.686 432.718 421.182 432.191 420.83 431.517C420.477 430.839 420.301 430.055 420.301 429.165C420.301 428.271 420.477 427.487 420.83 426.812C421.186 426.134 421.691 425.606 422.347 425.227C423.006 424.848 423.792 424.659 424.705 424.659C425.512 424.659 426.214 424.805 426.813 425.097C427.415 425.388 427.885 425.801 428.222 426.335C428.563 426.866 428.743 427.489 428.762 428.205H426.165C426.112 427.758 425.96 427.407 425.71 427.153C425.464 426.9 425.142 426.773 424.744 426.773C424.423 426.773 424.14 426.864 423.898 427.045C423.655 427.223 423.466 427.489 423.33 427.841C423.197 428.189 423.131 428.621 423.131 429.136C423.131 429.652 423.197 430.087 423.33 430.443C423.466 430.795 423.655 431.062 423.898 431.244C424.14 431.422 424.423 431.511 424.744 431.511C425.002 431.511 425.229 431.456 425.426 431.347C425.627 431.237 425.792 431.076 425.921 430.864C426.049 430.648 426.131 430.386 426.165 430.08H428.762C428.735 430.799 428.555 431.428 428.222 431.966C427.892 432.504 427.428 432.922 426.83 433.222C426.235 433.517 425.529 433.665 424.71 433.665ZM434.263 433.665C433.35 433.665 432.562 433.485 431.899 433.125C431.24 432.761 430.733 432.244 430.377 431.574C430.024 430.9 429.848 430.098 429.848 429.17C429.848 428.269 430.026 427.481 430.382 426.807C430.738 426.129 431.24 425.602 431.888 425.227C432.536 424.848 433.299 424.659 434.178 424.659C434.799 424.659 435.367 424.756 435.882 424.949C436.397 425.142 436.843 425.428 437.218 425.807C437.593 426.186 437.884 426.653 438.093 427.21C438.301 427.763 438.405 428.398 438.405 429.114V429.807H430.82V428.193H435.82C435.816 427.898 435.746 427.634 435.61 427.403C435.473 427.172 435.286 426.992 435.047 426.864C434.812 426.731 434.541 426.665 434.235 426.665C433.924 426.665 433.646 426.735 433.399 426.875C433.153 427.011 432.958 427.199 432.814 427.438C432.67 427.672 432.594 427.939 432.587 428.239V429.881C432.587 430.237 432.657 430.549 432.797 430.818C432.937 431.083 433.136 431.29 433.394 431.438C433.651 431.585 433.958 431.659 434.314 431.659C434.56 431.659 434.784 431.625 434.985 431.557C435.185 431.489 435.358 431.388 435.502 431.256C435.646 431.123 435.753 430.96 435.825 430.767L438.377 430.841C438.271 431.413 438.038 431.911 437.678 432.335C437.322 432.756 436.854 433.083 436.274 433.318C435.695 433.549 435.024 433.665 434.263 433.665ZM439.824 433.5V424.773H442.523V426.364H442.614C442.773 425.788 443.032 425.36 443.392 425.08C443.752 424.795 444.171 424.653 444.648 424.653C444.777 424.653 444.909 424.663 445.046 424.682C445.182 424.697 445.309 424.722 445.426 424.756V427.17C445.294 427.125 445.119 427.089 444.904 427.062C444.691 427.036 444.502 427.023 444.335 427.023C444.006 427.023 443.709 427.097 443.443 427.244C443.182 427.388 442.976 427.591 442.824 427.852C442.676 428.11 442.602 428.413 442.602 428.761V433.5H439.824Z" fill="#718096"/>
<path d="M593.693 407.5H513.693C502.648 407.5 493.693 416.454 493.693 427.5C493.693 438.546 502.648 447.5 513.693 447.5H593.693C604.739 447.5 613.693 438.546 613.693 427.5C613.693 416.454 604.739 407.5 593.693 407.5Z" fill="#EDF2F7"/>
<path d="M523.332 433.5V421.864H528.139C529.01 421.864 529.762 422.034 530.394 422.375C531.031 422.712 531.521 423.184 531.866 423.79C532.211 424.392 532.383 425.093 532.383 425.892C532.383 426.695 532.207 427.398 531.855 428C531.506 428.598 531.008 429.062 530.36 429.392C529.713 429.722 528.944 429.886 528.053 429.886H525.088V427.67H527.531C527.955 427.67 528.309 427.597 528.593 427.449C528.881 427.301 529.099 427.095 529.247 426.83C529.394 426.561 529.468 426.248 529.468 425.892C529.468 425.532 529.394 425.222 529.247 424.96C529.099 424.695 528.881 424.491 528.593 424.347C528.305 424.203 527.951 424.131 527.531 424.131H526.144V433.5H523.332ZM537.671 433.665C536.755 433.665 535.967 433.477 535.308 433.102C534.652 432.723 534.147 432.197 533.791 431.523C533.438 430.845 533.262 430.059 533.262 429.165C533.262 428.267 533.438 427.481 533.791 426.807C534.147 426.129 534.652 425.602 535.308 425.227C535.967 424.848 536.755 424.659 537.671 424.659C538.588 424.659 539.374 424.848 540.029 425.227C540.688 425.602 541.194 426.129 541.546 426.807C541.902 427.481 542.08 428.267 542.08 429.165C542.08 430.059 541.902 430.845 541.546 431.523C541.194 432.197 540.688 432.723 540.029 433.102C539.374 433.477 538.588 433.665 537.671 433.665ZM537.688 431.568C538.022 431.568 538.304 431.466 538.535 431.261C538.766 431.057 538.942 430.773 539.063 430.409C539.188 430.045 539.251 429.625 539.251 429.148C539.251 428.663 539.188 428.239 539.063 427.875C538.942 427.511 538.766 427.227 538.535 427.023C538.304 426.818 538.022 426.716 537.688 426.716C537.344 426.716 537.052 426.818 536.813 427.023C536.579 427.227 536.399 427.511 536.274 427.875C536.152 428.239 536.092 428.663 536.092 429.148C536.092 429.625 536.152 430.045 536.274 430.409C536.399 430.773 536.579 431.057 536.813 431.261C537.052 431.466 537.344 431.568 537.688 431.568ZM548.43 424.773V426.818H542.924V424.773H548.43ZM544.078 422.682H546.856V430.756C546.856 430.926 546.883 431.064 546.936 431.17C546.992 431.273 547.074 431.347 547.18 431.392C547.286 431.434 547.413 431.455 547.561 431.455C547.667 431.455 547.778 431.445 547.896 431.426C548.017 431.403 548.108 431.384 548.169 431.369L548.589 433.375C548.456 433.413 548.269 433.46 548.026 433.517C547.788 433.574 547.502 433.61 547.169 433.625C546.517 433.655 545.958 433.58 545.492 433.398C545.03 433.212 544.676 432.924 544.43 432.534C544.187 432.144 544.07 431.653 544.078 431.062V422.682ZM549.847 433.5V424.773H552.546V426.364H552.637C552.796 425.788 553.056 425.36 553.416 425.08C553.776 424.795 554.194 424.653 554.671 424.653C554.8 424.653 554.933 424.663 555.069 424.682C555.205 424.697 555.332 424.722 555.45 424.756V427.17C555.317 427.125 555.143 427.089 554.927 427.062C554.715 427.036 554.526 427.023 554.359 427.023C554.029 427.023 553.732 427.097 553.467 427.244C553.205 427.388 552.999 427.591 552.847 427.852C552.7 428.11 552.626 428.413 552.626 428.761V433.5H549.847ZM558.714 433.648C558.157 433.648 557.663 433.555 557.231 433.369C556.803 433.18 556.464 432.896 556.214 432.517C555.968 432.134 555.845 431.655 555.845 431.08C555.845 430.595 555.93 430.186 556.1 429.852C556.271 429.519 556.506 429.248 556.805 429.04C557.104 428.831 557.449 428.674 557.839 428.568C558.229 428.458 558.646 428.384 559.089 428.347C559.585 428.301 559.985 428.254 560.288 428.205C560.591 428.152 560.811 428.078 560.947 427.983C561.087 427.884 561.157 427.746 561.157 427.568V427.54C561.157 427.248 561.057 427.023 560.856 426.864C560.655 426.705 560.384 426.625 560.044 426.625C559.676 426.625 559.381 426.705 559.157 426.864C558.934 427.023 558.792 427.242 558.731 427.523L556.169 427.432C556.244 426.902 556.439 426.428 556.754 426.011C557.072 425.591 557.508 425.261 558.061 425.023C558.617 424.78 559.286 424.659 560.066 424.659C560.623 424.659 561.136 424.725 561.606 424.858C562.076 424.987 562.485 425.176 562.833 425.426C563.182 425.672 563.451 425.975 563.64 426.335C563.833 426.695 563.93 427.106 563.93 427.568V433.5H561.316V432.284H561.248C561.093 432.58 560.894 432.83 560.651 433.034C560.413 433.239 560.131 433.392 559.805 433.494C559.483 433.597 559.119 433.648 558.714 433.648ZM559.572 431.83C559.871 431.83 560.14 431.769 560.379 431.648C560.621 431.527 560.814 431.36 560.958 431.148C561.102 430.932 561.174 430.682 561.174 430.398V429.568C561.095 429.61 560.998 429.648 560.884 429.682C560.775 429.716 560.653 429.748 560.521 429.778C560.388 429.809 560.252 429.835 560.112 429.858C559.972 429.881 559.837 429.902 559.708 429.92C559.447 429.962 559.223 430.027 559.038 430.114C558.856 430.201 558.716 430.314 558.617 430.455C558.523 430.591 558.475 430.754 558.475 430.943C558.475 431.231 558.578 431.451 558.782 431.602C558.99 431.754 559.254 431.83 559.572 431.83ZM569.703 433.665C568.782 433.665 567.992 433.475 567.333 433.097C566.678 432.718 566.174 432.191 565.822 431.517C565.47 430.839 565.294 430.055 565.294 429.165C565.294 428.271 565.47 427.487 565.822 426.812C566.178 426.134 566.684 425.606 567.339 425.227C567.998 424.848 568.784 424.659 569.697 424.659C570.504 424.659 571.206 424.805 571.805 425.097C572.407 425.388 572.877 425.801 573.214 426.335C573.555 426.866 573.735 427.489 573.754 428.205H571.157C571.104 427.758 570.953 427.407 570.703 427.153C570.456 426.9 570.134 426.773 569.737 426.773C569.415 426.773 569.133 426.864 568.89 427.045C568.648 427.223 568.458 427.489 568.322 427.841C568.189 428.189 568.123 428.621 568.123 429.136C568.123 429.652 568.189 430.087 568.322 430.443C568.458 430.795 568.648 431.062 568.89 431.244C569.133 431.422 569.415 431.511 569.737 431.511C569.994 431.511 570.222 431.456 570.419 431.347C570.619 431.237 570.784 431.076 570.913 430.864C571.042 430.648 571.123 430.386 571.157 430.08H573.754C573.727 430.799 573.547 431.428 573.214 431.966C572.884 432.504 572.42 432.922 571.822 433.222C571.227 433.517 570.521 433.665 569.703 433.665ZM579.255 433.665C578.342 433.665 577.554 433.485 576.892 433.125C576.232 432.761 575.725 432.244 575.369 431.574C575.017 430.9 574.84 430.098 574.84 429.17C574.84 428.269 575.018 427.481 575.374 426.807C575.731 426.129 576.232 425.602 576.88 425.227C577.528 424.848 578.291 424.659 579.17 424.659C579.791 424.659 580.359 424.756 580.874 424.949C581.39 425.142 581.835 425.428 582.21 425.807C582.585 426.186 582.876 426.653 583.085 427.21C583.293 427.763 583.397 428.398 583.397 429.114V429.807H575.812V428.193H580.812C580.808 427.898 580.738 427.634 580.602 427.403C580.465 427.172 580.278 426.992 580.039 426.864C579.804 426.731 579.534 426.665 579.227 426.665C578.916 426.665 578.638 426.735 578.392 426.875C578.145 427.011 577.95 427.199 577.806 427.438C577.662 427.672 577.587 427.939 577.579 428.239V429.881C577.579 430.237 577.649 430.549 577.789 430.818C577.929 431.083 578.128 431.29 578.386 431.438C578.643 431.585 578.95 431.659 579.306 431.659C579.552 431.659 579.776 431.625 579.977 431.557C580.177 431.489 580.35 431.388 580.494 431.256C580.638 431.123 580.746 430.96 580.818 430.767L583.369 430.841C583.263 431.413 583.03 431.911 582.67 432.335C582.314 432.756 581.846 433.083 581.267 433.318C580.687 433.549 580.017 433.665 579.255 433.665Z" fill="#718096"/>
<path d="M733.693 407.5H653.693C642.648 407.5 633.693 416.454 633.693 427.5C633.693 438.546 642.648 447.5 653.693 447.5H733.693C744.739 447.5 753.693 438.546 753.693 427.5C753.693 416.454 744.739 407.5 733.693 407.5Z" fill="#718096"/>
<path d="M674.722 433.5V421.864H682.666V424.148H677.535V426.534H682.16V428.824H677.535V433.5H674.722ZM684.082 433.5V421.864H688.889C689.76 421.864 690.512 422.021 691.144 422.335C691.781 422.646 692.271 423.093 692.616 423.676C692.961 424.256 693.133 424.943 693.133 425.739C693.133 426.545 692.957 427.231 692.605 427.795C692.252 428.356 691.752 428.784 691.105 429.08C690.457 429.371 689.69 429.517 688.803 429.517H685.764V427.301H688.281C688.705 427.301 689.059 427.246 689.343 427.136C689.631 427.023 689.849 426.852 689.997 426.625C690.144 426.394 690.218 426.098 690.218 425.739C690.218 425.379 690.144 425.081 689.997 424.847C689.849 424.608 689.631 424.43 689.343 424.312C689.055 424.191 688.701 424.131 688.281 424.131H686.894V433.5H684.082ZM690.633 428.182L693.531 433.5H690.463L687.622 428.182H690.633ZM694.676 433.5V421.864H702.789V424.148H697.488V426.534H702.374V428.824H697.488V431.216H702.789V433.5H694.676ZM704.551 433.5V421.864H712.664V424.148H707.363V426.534H712.249V428.824H707.363V431.216H712.664V433.5H704.551Z" fill="white"/>
</g>
<defs>
<clipPath id="clip0_2055_21">
<rect width="1200" height="630" fill="white"/>
</clipPath>
</defs>
</svg>
